<?xml version="1.0" encoding="UTF-8"?>
<svg xmlns="http://www.w3.org/2000/svg" xmlns:xlink="http://www.w3.org/1999/xlink" viewBox="0 0 2766.61 2640.8">
  <defs>
    <mask id="mask" x="0" y=".16" width="2766.53" height="2640.66" maskUnits="userSpaceOnUse">
      <g>
        <path d="m26.84,1149.6c5.86-28.17,34.25-45.12,62.17-38.17l103.65,25.85c23.93,5.96,48.08-8.63,55.05-32.29,49.01-166.45,137.25-319.29,256.91-444.97,16.99-17.86,17.55-46.07.41-63.82l-74.2-76.84c-20-20.69-19.49-53.77,1.98-72.92,65.02-58,136.38-109.76,213.35-154.16h.02s-.02,0-.02,0c76.94-44.44,157.43-80.39,240.17-107.68,27.33-9.02,56.21,7.11,64.16,34.77l29.44,102.68c6.79,23.7,31.52,37.32,55.46,31.53,168.66-40.78,345.16-40.78,513.82,0,23.97,5.79,48.69-7.85,55.46-31.55l29.45-102.68c7.92-27.66,36.82-43.77,64.15-34.75,82.75,27.31,163.25,63.24,240.17,107.69v.03-.03c76.97,44.39,148.35,96.15,213.35,154.15,21.47,19.15,21.96,52.22,1.97,72.94l-74.19,76.84c-17.14,17.74-16.58,45.95.43,63.8,119.65,125.68,207.89,278.52,256.89,444.99,6.97,23.65,31.14,38.24,55.07,32.25l103.64-25.84c27.92-6.96,56.31,10.01,62.18,38.18,17.71,85.32,26.85,173,26.82,261.85l-.05.02h.05c.03,88.82-9.09,176.53-26.84,261.83-5.85,28.19-34.25,45.12-62.18,38.18l-103.64-25.84c-23.93-5.96-48.08,8.63-55.05,32.28-49,166.46-137.26,319.3-256.91,444.98-17,17.84-17.55,46.07-.41,63.8l74.2,76.84c20,20.69,19.49,53.78-1.97,72.93-65.03,58.01-136.4,109.76-213.36,154.15l-.03-.05.03.05c-76.93,44.46-157.42,80.39-240.17,107.68-27.33,9.01-56.21-7.09-64.16-34.75l-29.43-102.68c-6.79-23.7-31.52-37.33-55.46-31.54-168.66,40.8-345.16,40.78-513.82,0-23.97-5.8-48.69,7.84-55.46,31.56l-29.45,102.68c-7.92,27.66-36.82,43.76-64.14,34.76-82.74-27.31-163.25-63.24-240.17-107.7v-.03l-.02.02c-76.95-44.39-148.33-96.13-213.33-154.13-21.47-19.17-21.97-52.24-1.97-72.95l74.19-76.82c17.14-17.75,16.58-45.96-.43-63.82-119.66-125.66-207.88-278.52-256.89-444.98-6.97-23.65-31.14-38.23-55.05-32.26l-103.66,25.84c-27.91,6.98-56.3-9.99-62.17-38.17C9.11,1588-.03,1500.29,0,1411.44c-.03-88.85,9.11-176.54,26.84-261.83Z"/>
        <path d="m33.83,1142.61c5.86-28.17,34.25-45.12,62.17-38.17l103.65,25.85c23.93,5.96,48.08-8.63,55.05-32.29,49.01-166.45,137.25-319.29,256.91-444.97,16.99-17.86,17.55-46.07.41-63.82l-74.2-76.84c-20-20.69-19.49-53.77,1.98-72.92,65.02-58,136.38-109.76,213.35-154.16h.02s-.02,0-.02,0c76.94-44.44,157.43-80.39,240.17-107.68,27.33-9.02,56.21,7.11,64.16,34.77l29.44,102.68c6.79,23.7,31.52,37.32,55.46,31.52,168.66-40.78,345.16-40.78,513.82.01,23.97,5.79,48.69-7.85,55.46-31.55l29.45-102.68c7.92-27.66,36.82-43.77,64.15-34.75,82.75,27.31,163.25,63.24,240.17,107.69v.03s.01-.03.01-.03c76.95,44.39,148.34,96.15,213.33,154.15,21.47,19.15,21.96,52.22,1.97,72.94l-74.19,76.84c-17.14,17.74-16.58,45.95.43,63.8,119.65,125.68,207.89,278.52,256.89,444.99,6.97,23.65,31.14,38.24,55.07,32.25l103.64-25.84c27.92-6.96,56.31,10.01,62.18,38.18,17.71,85.32,26.85,173,26.82,261.85l-.05.02h.05c.03,88.83-9.09,176.53-26.84,261.83-5.85,28.19-34.25,45.12-62.18,38.18l-103.64-25.84c-23.93-5.96-48.08,8.63-55.05,32.28-49,166.46-137.25,319.3-256.91,444.98-17,17.84-17.55,46.07-.41,63.8l74.2,76.84c20,20.69,19.49,53.78-1.97,72.93-65.03,58.01-136.4,109.76-213.36,154.15l-.03-.05.03.05c-76.93,44.46-157.42,80.39-240.17,107.68-27.33,9.01-56.21-7.09-64.16-34.75l-29.43-102.68c-6.79-23.7-31.52-37.33-55.46-31.54-168.66,40.8-345.16,40.78-513.82,0-23.97-5.8-48.69,7.84-55.46,31.56l-29.45,102.68c-7.92,27.66-36.82,43.76-64.14,34.76-82.74-27.31-163.25-63.24-240.17-107.7v-.03s-.02.02-.02.02c-76.95-44.39-148.33-96.13-213.33-154.13-21.47-19.17-21.97-52.24-1.97-72.95l74.19-76.82c17.14-17.75,16.58-45.96-.43-63.82-119.66-125.66-207.88-278.52-256.89-444.98-6.97-23.65-31.14-38.23-55.05-32.26l-103.66,25.84c-27.91,6.98-56.3-9.99-62.17-38.17-17.71-85.31-26.85-173.01-26.82-261.87-.03-88.85,9.11-176.54,26.84-261.83Z" style="fill: #090909;"/>
        <path d="m40.83,1135.61c5.86-28.17,34.25-45.12,62.17-38.17l103.65,25.85c23.93,5.96,48.08-8.63,55.05-32.29,49.01-166.45,137.26-319.29,256.91-444.97,16.99-17.86,17.55-46.07.41-63.82l-74.2-76.84c-20-20.69-19.49-53.77,1.98-72.92,65.02-58,136.38-109.76,213.35-154.16h.02s-.02,0-.02,0c76.94-44.44,157.43-80.39,240.17-107.68,27.33-9.02,56.21,7.11,64.16,34.77l29.44,102.68c6.79,23.7,31.52,37.32,55.46,31.52,168.66-40.78,345.16-40.78,513.82.01,23.97,5.79,48.69-7.85,55.47-31.55l29.45-102.68c7.92-27.66,36.82-43.77,64.15-34.75,82.75,27.31,163.25,63.24,240.17,107.69v.03s.01-.03.01-.03c76.95,44.39,148.34,96.15,213.33,154.15,21.47,19.15,21.96,52.22,1.97,72.94l-74.19,76.84c-17.14,17.74-16.58,45.95.43,63.8,119.65,125.68,207.89,278.52,256.89,444.99,6.97,23.65,31.14,38.24,55.07,32.25l103.64-25.84c27.92-6.96,56.31,10.01,62.18,38.18,17.71,85.32,26.85,173,26.82,261.85l-.05.02h.05c.03,88.83-9.09,176.53-26.84,261.83-5.85,28.19-34.25,45.12-62.18,38.18l-103.64-25.84c-23.93-5.96-48.08,8.63-55.05,32.28-49,166.46-137.25,319.3-256.91,444.98-17,17.84-17.55,46.07-.41,63.8l74.2,76.84c20,20.69,19.49,53.78-1.97,72.93-65.03,58.01-136.4,109.76-213.36,154.15l-.03-.05.03.05c-76.93,44.46-157.42,80.39-240.17,107.68-27.33,9.01-56.21-7.09-64.16-34.75l-29.43-102.68c-6.79-23.7-31.52-37.33-55.47-31.54-168.66,40.8-345.16,40.78-513.82,0-23.97-5.8-48.69,7.84-55.46,31.56l-29.45,102.68c-7.92,27.66-36.82,43.76-64.14,34.75-82.74-27.31-163.25-63.24-240.17-107.7v-.03s-.02.02-.02.02c-76.95-44.39-148.33-96.13-213.33-154.13-21.47-19.17-21.97-52.24-1.97-72.95l74.19-76.82c17.14-17.75,16.58-45.96-.43-63.82-119.66-125.66-207.88-278.52-256.89-444.98-6.97-23.65-31.14-38.23-55.05-32.26l-103.66,25.84c-27.91,6.98-56.3-9.99-62.17-38.17-17.71-85.31-26.85-173.01-26.82-261.87-.03-88.85,9.11-176.54,26.84-261.83Z" style="fill: #121212;"/>
        <path d="m47.83,1128.61c5.86-28.17,34.25-45.12,62.17-38.17l103.65,25.85c23.93,5.96,48.08-8.63,55.05-32.28,49.01-166.45,137.26-319.29,256.91-444.97,16.99-17.86,17.55-46.07.41-63.82l-74.2-76.84c-20-20.69-19.49-53.77,1.98-72.92,65.02-58,136.38-109.76,213.35-154.16h.02s-.01,0-.01,0c76.94-44.44,157.43-80.39,240.17-107.68,27.33-9.02,56.21,7.11,64.16,34.77l29.44,102.68c6.79,23.7,31.52,37.32,55.46,31.52,168.66-40.78,345.16-40.78,513.82.01,23.97,5.79,48.69-7.85,55.47-31.55l29.45-102.68c7.92-27.66,36.82-43.77,64.15-34.75,82.75,27.31,163.25,63.24,240.17,107.69v.03s.01-.03.01-.03c76.95,44.39,148.34,96.15,213.33,154.15,21.47,19.15,21.96,52.22,1.97,72.94l-74.19,76.84c-17.14,17.74-16.58,45.95.43,63.8,119.65,125.68,207.89,278.52,256.89,444.99,6.97,23.65,31.14,38.24,55.07,32.25l103.64-25.84c27.92-6.96,56.31,10.01,62.18,38.18,17.71,85.32,26.85,173,26.82,261.85h-.05s.05.02.05.02c.03,88.83-9.09,176.53-26.84,261.82-5.85,28.19-34.25,45.12-62.18,38.18l-103.64-25.84c-23.93-5.96-48.08,8.63-55.05,32.28-49,166.46-137.25,319.3-256.91,444.98-17,17.84-17.55,46.07-.41,63.8l74.2,76.84c20,20.69,19.49,53.78-1.97,72.93-65.03,58.01-136.4,109.76-213.36,154.15l-.03-.05.03.05c-76.93,44.46-157.42,80.39-240.17,107.68-27.33,9.01-56.21-7.09-64.16-34.75l-29.43-102.68c-6.79-23.7-31.52-37.33-55.47-31.54-168.66,40.8-345.16,40.78-513.82,0-23.97-5.8-48.69,7.84-55.46,31.56l-29.45,102.68c-7.92,27.66-36.82,43.76-64.14,34.75-82.74-27.31-163.25-63.24-240.17-107.7v-.03s-.02.02-.02.02c-76.95-44.39-148.33-96.13-213.33-154.13-21.47-19.17-21.97-52.24-1.97-72.95l74.19-76.82c17.14-17.75,16.58-45.96-.43-63.82-119.66-125.66-207.89-278.52-256.89-444.98-6.97-23.65-31.14-38.23-55.05-32.26l-103.66,25.84c-27.91,6.98-56.3-9.99-62.17-38.17-17.71-85.31-26.85-173.01-26.82-261.87-.03-88.85,9.11-176.54,26.84-261.83Z" style="fill: #1a1a1a;"/>
        <path d="m54.83,1121.61c5.86-28.17,34.25-45.12,62.17-38.17l103.65,25.85c23.93,5.96,48.08-8.63,55.05-32.28,49.01-166.45,137.26-319.29,256.91-444.97,16.99-17.86,17.55-46.07.41-63.82l-74.2-76.84c-20-20.69-19.49-53.77,1.98-72.92,65.02-58,136.38-109.76,213.35-154.16h.02s-.01,0-.01,0c76.93-44.44,157.43-80.39,240.17-107.68,27.33-9.02,56.21,7.11,64.16,34.77l29.44,102.68c6.79,23.71,31.52,37.32,55.46,31.52,168.66-40.78,345.16-40.78,513.82.01,23.97,5.79,48.69-7.85,55.47-31.55l29.45-102.68c7.92-27.66,36.82-43.77,64.15-34.75,82.75,27.31,163.25,63.24,240.17,107.69v.03s.01-.03.01-.03c76.95,44.39,148.34,96.15,213.33,154.15,21.47,19.15,21.96,52.22,1.97,72.94l-74.19,76.84c-17.14,17.74-16.58,45.95.43,63.8,119.65,125.68,207.89,278.52,256.89,444.99,6.97,23.65,31.14,38.24,55.07,32.25l103.64-25.84c27.92-6.96,56.31,10.01,62.18,38.18,17.71,85.32,26.85,173,26.82,261.85h-.05s.05.02.05.02c.03,88.83-9.09,176.53-26.84,261.82-5.85,28.19-34.25,45.12-62.18,38.18l-103.64-25.84c-23.93-5.96-48.08,8.63-55.05,32.28-49,166.46-137.25,319.3-256.91,444.98-17,17.84-17.55,46.07-.41,63.8l74.2,76.84c20,20.69,19.49,53.78-1.97,72.93-65.03,58.01-136.4,109.76-213.36,154.15l-.03-.05.03.05c-76.93,44.46-157.42,80.39-240.17,107.68-27.33,9.01-56.21-7.09-64.16-34.75l-29.43-102.68c-6.79-23.7-31.52-37.33-55.47-31.54-168.66,40.8-345.16,40.78-513.82,0-23.97-5.8-48.69,7.84-55.46,31.56l-29.45,102.68c-7.92,27.66-36.82,43.76-64.14,34.75-82.74-27.31-163.25-63.24-240.17-107.7v-.03s-.02.02-.02.02c-76.95-44.39-148.33-96.13-213.33-154.13-21.47-19.17-21.97-52.24-1.97-72.95l74.19-76.82c17.14-17.75,16.58-45.96-.43-63.82-119.66-125.66-207.89-278.52-256.89-444.98-6.97-23.65-31.14-38.23-55.05-32.26l-103.66,25.84c-27.91,6.98-56.3-9.99-62.17-38.17-17.71-85.31-26.85-173.01-26.82-261.87-.03-88.85,9.11-176.53,26.83-261.83Z" style="fill: #232323;"/>
        <path d="m61.83,1114.62c5.86-28.17,34.25-45.12,62.17-38.17l103.65,25.85c23.93,5.96,48.08-8.63,55.05-32.28,49.01-166.45,137.26-319.29,256.91-444.97,16.99-17.86,17.55-46.07.41-63.82l-74.2-76.84c-20-20.69-19.49-53.77,1.98-72.92,65.02-58,136.38-109.76,213.35-154.16h.02s-.01,0-.01,0c76.93-44.44,157.43-80.39,240.17-107.68,27.33-9.02,56.21,7.11,64.16,34.77l29.44,102.68c6.79,23.71,31.52,37.32,55.46,31.52,168.66-40.78,345.16-40.78,513.82.01,23.97,5.78,48.69-7.85,55.47-31.55l29.45-102.68c7.92-27.66,36.82-43.77,64.15-34.75,82.75,27.31,163.25,63.24,240.17,107.7v.03s.01-.03.01-.03c76.95,44.39,148.34,96.15,213.33,154.15,21.47,19.15,21.96,52.22,1.97,72.94l-74.19,76.84c-17.14,17.74-16.58,45.95.43,63.8,119.65,125.68,207.89,278.51,256.89,444.99,6.97,23.65,31.14,38.24,55.07,32.25l103.64-25.84c27.92-6.96,56.31,10.01,62.18,38.18,17.71,85.32,26.85,173,26.82,261.85h-.05s.05.02.05.02c.03,88.83-9.09,176.53-26.84,261.82-5.85,28.18-34.25,45.12-62.18,38.18l-103.64-25.84c-23.93-5.96-48.08,8.63-55.05,32.28-49,166.46-137.25,319.3-256.91,444.98-17,17.84-17.55,46.07-.41,63.8l74.2,76.84c20,20.69,19.49,53.78-1.97,72.93-65.03,58.01-136.4,109.76-213.36,154.15l-.03-.05.03.05c-76.93,44.46-157.42,80.39-240.17,107.68-27.33,9.01-56.21-7.09-64.16-34.75l-29.43-102.68c-6.79-23.7-31.52-37.33-55.47-31.54-168.66,40.8-345.16,40.78-513.82,0-23.97-5.8-48.69,7.84-55.46,31.56l-29.45,102.68c-7.92,27.66-36.82,43.76-64.14,34.75-82.74-27.31-163.25-63.24-240.17-107.7v-.03s-.02.02-.02.02c-76.95-44.39-148.33-96.13-213.33-154.13-21.47-19.17-21.97-52.24-1.97-72.95l74.2-76.82c17.13-17.75,16.58-45.96-.43-63.82-119.66-125.66-207.89-278.51-256.9-444.98-6.97-23.65-31.14-38.23-55.05-32.26l-103.66,25.84c-27.91,6.98-56.3-10-62.18-38.17-17.71-85.31-26.85-173.01-26.82-261.87-.03-88.85,9.11-176.53,26.83-261.83Z" style="fill: #2c2c2c;"/>
        <path d="m68.82,1107.62c5.86-28.17,34.25-45.12,62.17-38.17l103.65,25.84c23.93,5.96,48.08-8.63,55.05-32.28,49.01-166.45,137.26-319.29,256.91-444.97,16.99-17.86,17.55-46.07.41-63.82l-74.2-76.84c-20-20.69-19.49-53.77,1.98-72.92,65.02-58,136.38-109.76,213.35-154.16h.02s-.01,0-.01,0c76.93-44.44,157.43-80.39,240.17-107.68,27.33-9.01,56.21,7.11,64.16,34.77l29.44,102.68c6.79,23.71,31.52,37.32,55.46,31.52,168.66-40.78,345.16-40.78,513.82.01,23.97,5.78,48.69-7.85,55.47-31.55l29.45-102.68c7.92-27.66,36.82-43.77,64.15-34.75,82.75,27.31,163.25,63.24,240.17,107.7v.03s.01-.03.01-.03c76.95,44.39,148.34,96.15,213.33,154.15,21.47,19.15,21.96,52.22,1.97,72.94l-74.19,76.84c-17.14,17.74-16.58,45.95.43,63.8,119.65,125.68,207.89,278.51,256.89,444.99,6.97,23.65,31.14,38.24,55.07,32.25l103.64-25.84c27.92-6.96,56.31,10.01,62.18,38.18,17.71,85.32,26.85,173,26.82,261.85h-.05s.05.02.05.02c.03,88.83-9.09,176.53-26.84,261.82-5.85,28.18-34.25,45.12-62.18,38.18l-103.64-25.84c-23.93-5.96-48.08,8.63-55.05,32.28-49,166.46-137.25,319.3-256.91,444.98-17,17.84-17.55,46.07-.41,63.8l74.2,76.84c20,20.69,19.49,53.78-1.97,72.93-65.03,58.01-136.4,109.76-213.36,154.15l-.03-.05.03.05c-76.93,44.46-157.42,80.39-240.17,107.68-27.33,9.01-56.21-7.09-64.16-34.75l-29.43-102.68c-6.8-23.7-31.52-37.33-55.47-31.54-168.66,40.8-345.16,40.78-513.82,0-23.97-5.8-48.69,7.84-55.46,31.56l-29.45,102.68c-7.92,27.66-36.82,43.76-64.14,34.75-82.74-27.31-163.25-63.24-240.17-107.7v-.03s-.02.02-.02.02c-76.95-44.39-148.33-96.13-213.33-154.13-21.47-19.17-21.97-52.24-1.97-72.95l74.2-76.82c17.13-17.75,16.58-45.96-.43-63.82-119.66-125.66-207.89-278.51-256.9-444.98-6.97-23.65-31.14-38.23-55.05-32.26l-103.66,25.84c-27.91,6.98-56.3-10-62.18-38.17-17.71-85.31-26.85-173.01-26.82-261.87-.03-88.85,9.11-176.53,26.83-261.83Z" style="fill: #353535;"/>
        <path d="m75.82,1100.62c5.86-28.17,34.25-45.12,62.17-38.17l103.65,25.84c23.93,5.96,48.08-8.63,55.05-32.28,49.01-166.45,137.26-319.29,256.91-444.97,16.99-17.86,17.55-46.07.41-63.82l-74.2-76.84c-20-20.69-19.49-53.77,1.98-72.92,65.02-58,136.38-109.76,213.35-154.16h.02s-.01,0-.01,0c76.93-44.44,157.43-80.39,240.17-107.68,27.33-9.01,56.21,7.11,64.16,34.77l29.44,102.68c6.79,23.71,31.52,37.32,55.46,31.52,168.66-40.78,345.16-40.78,513.82.01,23.97,5.78,48.69-7.85,55.47-31.55l29.45-102.68c7.92-27.66,36.82-43.77,64.15-34.75,82.75,27.31,163.25,63.24,240.17,107.7v.03s0-.03,0-.03c76.95,44.39,148.34,96.15,213.33,154.15,21.47,19.15,21.96,52.22,1.97,72.94l-74.19,76.84c-17.14,17.74-16.58,45.95.43,63.8,119.65,125.67,207.89,278.51,256.89,444.99,6.97,23.65,31.14,38.24,55.07,32.25l103.64-25.84c27.92-6.96,56.31,10.01,62.18,38.18,17.71,85.32,26.85,173,26.82,261.85h-.05s.05.02.05.02c.03,88.83-9.09,176.53-26.84,261.82-5.86,28.18-34.25,45.12-62.18,38.18l-103.64-25.84c-23.93-5.96-48.08,8.63-55.05,32.28-49,166.46-137.25,319.3-256.91,444.98-17,17.84-17.55,46.07-.41,63.8l74.2,76.84c20,20.69,19.49,53.78-1.97,72.93-65.03,58.01-136.4,109.76-213.36,154.15l-.03-.05.03.05c-76.93,44.46-157.42,80.39-240.17,107.68-27.33,9.01-56.21-7.09-64.16-34.75l-29.43-102.68c-6.8-23.7-31.52-37.33-55.47-31.54-168.66,40.8-345.16,40.78-513.82,0-23.97-5.8-48.69,7.84-55.46,31.56l-29.45,102.68c-7.92,27.66-36.82,43.76-64.14,34.75-82.74-27.31-163.25-63.24-240.17-107.7v-.03s-.02.02-.02.02c-76.95-44.39-148.33-96.13-213.33-154.13-21.47-19.17-21.97-52.24-1.97-72.95l74.2-76.82c17.13-17.75,16.58-45.96-.43-63.82-119.66-125.66-207.89-278.51-256.9-444.98-6.96-23.65-31.14-38.23-55.05-32.26l-103.66,25.84c-27.91,6.98-56.3-10-62.18-38.17-17.71-85.31-26.85-173.01-26.82-261.87-.03-88.85,9.11-176.53,26.83-261.83Z" style="fill: #3e3e3e;"/>
        <path d="m82.82,1093.62c5.86-28.17,34.25-45.12,62.17-38.17l103.65,25.84c23.93,5.96,48.08-8.63,55.05-32.28,49.01-166.45,137.26-319.3,256.91-444.97,16.99-17.86,17.55-46.07.41-63.82l-74.2-76.84c-20-20.69-19.49-53.77,1.98-72.92,65.02-58,136.38-109.76,213.35-154.16h.02s-.01,0-.01,0c76.93-44.44,157.43-80.39,240.16-107.68,27.33-9.01,56.21,7.11,64.16,34.77l29.44,102.68c6.79,23.71,31.52,37.32,55.46,31.52,168.66-40.78,345.16-40.78,513.82.01,23.97,5.78,48.69-7.85,55.47-31.55l29.45-102.68c7.92-27.66,36.82-43.77,64.15-34.75,82.75,27.31,163.25,63.24,240.17,107.7v.03s0-.03,0-.03c76.95,44.39,148.34,96.15,213.33,154.15,21.47,19.15,21.96,52.22,1.97,72.94l-74.19,76.84c-17.14,17.74-16.58,45.95.43,63.8,119.65,125.67,207.89,278.51,256.89,444.99,6.97,23.65,31.14,38.24,55.07,32.25l103.64-25.84c27.92-6.96,56.31,10.01,62.18,38.18,17.71,85.32,26.85,173,26.82,261.85h-.05s.05.02.05.02c.03,88.83-9.09,176.52-26.84,261.82-5.86,28.18-34.25,45.12-62.18,38.18l-103.64-25.84c-23.93-5.96-48.08,8.63-55.05,32.28-49,166.46-137.25,319.3-256.91,444.98-17,17.84-17.55,46.07-.41,63.8l74.2,76.84c20,20.69,19.49,53.78-1.97,72.93-65.03,58.01-136.4,109.76-213.36,154.15l-.03-.05.03.05c-76.93,44.46-157.42,80.39-240.17,107.68-27.33,9.01-56.21-7.09-64.16-34.75l-29.43-102.68c-6.8-23.7-31.52-37.33-55.47-31.54-168.66,40.8-345.16,40.78-513.82,0-23.97-5.8-48.69,7.84-55.46,31.56l-29.45,102.68c-7.92,27.66-36.82,43.76-64.14,34.75-82.74-27.31-163.25-63.24-240.17-107.7v-.03s-.02.02-.02.02c-76.95-44.39-148.33-96.13-213.33-154.13-21.47-19.17-21.97-52.24-1.97-72.95l74.2-76.82c17.13-17.75,16.58-45.96-.43-63.82-119.66-125.66-207.89-278.51-256.9-444.98-6.96-23.65-31.13-38.23-55.05-32.26l-103.66,25.84c-27.91,6.98-56.3-10-62.18-38.17-17.71-85.31-26.85-173.01-26.82-261.87-.03-88.85,9.11-176.53,26.83-261.83Z" style="fill: #474747;"/>
        <path d="m89.82,1086.63c5.86-28.17,34.25-45.12,62.17-38.17l103.65,25.84c23.93,5.96,48.08-8.63,55.05-32.28,49.01-166.46,137.26-319.3,256.91-444.97,17-17.86,17.55-46.07.41-63.82l-74.2-76.84c-20-20.69-19.49-53.77,1.98-72.92,65.02-58,136.38-109.76,213.35-154.16h.02s-.01,0-.01,0c76.93-44.44,157.43-80.39,240.16-107.68,27.33-9.01,56.21,7.11,64.16,34.77l29.44,102.68c6.79,23.71,31.52,37.32,55.46,31.52,168.66-40.78,345.16-40.78,513.82.01,23.97,5.78,48.69-7.85,55.47-31.55l29.45-102.68c7.92-27.66,36.82-43.77,64.15-34.75,82.75,27.31,163.25,63.24,240.17,107.7v.03s0-.03,0-.03c76.95,44.39,148.34,96.15,213.33,154.15,21.47,19.15,21.96,52.22,1.97,72.93l-74.19,76.84c-17.14,17.74-16.58,45.95.43,63.8,119.65,125.67,207.89,278.51,256.89,444.99,6.97,23.65,31.14,38.24,55.07,32.25l103.64-25.84c27.92-6.96,56.31,10.01,62.18,38.18,17.71,85.32,26.85,173,26.82,261.85h-.05s.05.02.05.02c.03,88.83-9.09,176.52-26.84,261.82-5.86,28.18-34.25,45.12-62.18,38.18l-103.64-25.84c-23.93-5.96-48.08,8.63-55.05,32.28-49,166.46-137.25,319.3-256.91,444.98-17,17.84-17.55,46.07-.41,63.8l74.2,76.84c20,20.69,19.5,53.78-1.97,72.93-65.03,58.01-136.4,109.76-213.36,154.15l-.03-.05.03.05c-76.93,44.46-157.42,80.39-240.17,107.68-27.33,9.01-56.21-7.09-64.16-34.75l-29.44-102.68c-6.8-23.7-31.52-37.33-55.47-31.54-168.66,40.8-345.16,40.78-513.82,0-23.97-5.8-48.69,7.84-55.46,31.56l-29.45,102.68c-7.92,27.66-36.82,43.76-64.14,34.75-82.74-27.31-163.25-63.24-240.17-107.7v-.03s-.02.02-.02.02c-76.95-44.39-148.33-96.13-213.33-154.13-21.47-19.17-21.97-52.24-1.97-72.95l74.2-76.82c17.13-17.75,16.58-45.96-.43-63.82-119.66-125.66-207.89-278.51-256.9-444.98-6.96-23.65-31.13-38.23-55.05-32.26l-103.66,25.84c-27.91,6.98-56.3-10-62.18-38.17-17.71-85.31-26.85-173.01-26.81-261.87-.03-88.85,9.11-176.53,26.83-261.83Z" style="fill: #4f4f4f;"/>
        <path d="m96.81,1079.63c5.86-28.17,34.25-45.12,62.17-38.17l103.65,25.84c23.93,5.96,48.08-8.63,55.05-32.28,49.01-166.46,137.26-319.3,256.91-444.97,17-17.86,17.55-46.07.41-63.82l-74.2-76.84c-20-20.68-19.49-53.76,1.98-72.92,65.02-58,136.38-109.76,213.35-154.16h.02s-.01,0-.01,0c76.93-44.44,157.43-80.39,240.16-107.68,27.33-9.01,56.21,7.11,64.16,34.77l29.44,102.68c6.79,23.71,31.52,37.32,55.46,31.52,168.66-40.78,345.16-40.78,513.82.01,23.97,5.78,48.69-7.85,55.47-31.55l29.45-102.68c7.92-27.66,36.82-43.76,64.15-34.75,82.75,27.31,163.25,63.24,240.17,107.7v.03s0-.03,0-.03c76.95,44.39,148.34,96.15,213.33,154.15,21.47,19.15,21.96,52.22,1.97,72.93l-74.19,76.84c-17.14,17.74-16.58,45.95.43,63.8,119.65,125.67,207.89,278.51,256.89,444.99,6.97,23.65,31.14,38.24,55.07,32.25l103.64-25.84c27.92-6.96,56.31,10.01,62.18,38.18,17.71,85.32,26.85,173,26.82,261.85h-.05s.05.02.05.02c.03,88.83-9.09,176.52-26.84,261.82-5.86,28.18-34.25,45.12-62.18,38.18l-103.64-25.84c-23.93-5.96-48.08,8.63-55.05,32.28-49,166.46-137.25,319.3-256.91,444.98-17,17.84-17.55,46.07-.41,63.8l74.2,76.84c20,20.69,19.5,53.78-1.97,72.93-65.03,58.01-136.4,109.76-213.36,154.15l-.03-.05.03.05c-76.93,44.46-157.42,80.39-240.17,107.68-27.33,9.01-56.21-7.09-64.16-34.75l-29.44-102.68c-6.8-23.7-31.52-37.33-55.47-31.54-168.66,40.8-345.16,40.78-513.82,0-23.97-5.8-48.69,7.84-55.46,31.56l-29.45,102.68c-7.92,27.66-36.82,43.76-64.14,34.75-82.74-27.31-163.25-63.24-240.17-107.7v-.03s-.02.02-.02.02c-76.95-44.39-148.33-96.13-213.33-154.13-21.47-19.17-21.97-52.24-1.97-72.95l74.2-76.82c17.13-17.75,16.58-45.96-.43-63.82-119.66-125.66-207.89-278.51-256.9-444.98-6.96-23.65-31.13-38.23-55.05-32.26l-103.66,25.84c-27.91,6.98-56.3-10-62.18-38.17-17.71-85.31-26.85-173.01-26.81-261.87-.03-88.85,9.11-176.53,26.83-261.83Z" style="fill: #585858;"/>
        <path d="m103.81,1072.63c5.86-28.17,34.25-45.12,62.17-38.17l103.65,25.84c23.93,5.96,48.08-8.63,55.05-32.28,49.01-166.46,137.26-319.3,256.91-444.97,17-17.86,17.55-46.07.41-63.82l-74.2-76.84c-20-20.68-19.49-53.76,1.98-72.92,65.02-58,136.38-109.76,213.35-154.16h.02s0,0,0,0c76.93-44.44,157.43-80.39,240.16-107.68,27.33-9.01,56.21,7.11,64.16,34.77l29.44,102.68c6.79,23.71,31.52,37.32,55.46,31.52,168.66-40.78,345.16-40.78,513.82.01,23.97,5.78,48.69-7.85,55.47-31.55l29.44-102.68c7.92-27.66,36.82-43.76,64.15-34.75,82.75,27.31,163.25,63.24,240.17,107.7v.02s0-.02,0-.02c76.95,44.39,148.34,96.15,213.33,154.15,21.47,19.15,21.96,52.22,1.97,72.93l-74.19,76.84c-17.14,17.74-16.58,45.95.43,63.8,119.65,125.67,207.89,278.51,256.89,444.99,6.97,23.65,31.14,38.24,55.07,32.25l103.64-25.84c27.92-6.96,56.31,10.01,62.18,38.18,17.71,85.32,26.85,173,26.82,261.85h-.05s.05.02.05.02c.03,88.83-9.09,176.52-26.84,261.82-5.86,28.18-34.25,45.12-62.18,38.18l-103.64-25.84c-23.93-5.96-48.08,8.63-55.05,32.28-49,166.46-137.25,319.3-256.91,444.98-17,17.84-17.55,46.07-.41,63.8l74.2,76.84c20,20.69,19.5,53.78-1.97,72.93-65.03,58.01-136.4,109.76-213.36,154.15l-.03-.05.03.05c-76.93,44.46-157.42,80.39-240.17,107.68-27.33,9.01-56.21-7.09-64.16-34.75l-29.44-102.68c-6.8-23.7-31.53-37.33-55.47-31.54-168.66,40.8-345.16,40.78-513.82,0-23.97-5.8-48.69,7.84-55.46,31.56l-29.45,102.68c-7.92,27.66-36.82,43.76-64.14,34.75-82.74-27.31-163.25-63.24-240.17-107.7v-.03s-.02.02-.02.02c-76.95-44.39-148.33-96.13-213.33-154.13-21.47-19.17-21.97-52.24-1.97-72.95l74.2-76.82c17.13-17.75,16.58-45.96-.43-63.82-119.66-125.66-207.89-278.51-256.9-444.98-6.96-23.65-31.13-38.23-55.05-32.26l-103.66,25.84c-27.91,6.98-56.3-10-62.18-38.17-17.71-85.31-26.85-173.01-26.81-261.87-.03-88.85,9.11-176.53,26.83-261.83Z" style="fill: #616161;"/>
        <path d="m110.81,1065.63c5.86-28.17,34.25-45.12,62.17-38.17l103.65,25.84c23.93,5.96,48.08-8.63,55.05-32.28,49.01-166.46,137.26-319.3,256.91-444.97,17-17.86,17.55-46.07.41-63.82l-74.2-76.84c-20-20.68-19.49-53.76,1.98-72.92,65.02-58,136.38-109.76,213.35-154.16h.02s0,0,0,0c76.93-44.44,157.43-80.39,240.16-107.68,27.33-9.01,56.21,7.11,64.16,34.77l29.44,102.68c6.79,23.71,31.52,37.32,55.46,31.52,168.66-40.78,345.16-40.78,513.82.01,23.97,5.78,48.69-7.85,55.47-31.55l29.44-102.68c7.92-27.66,36.82-43.76,64.15-34.75,82.75,27.31,163.25,63.24,240.17,107.7v.02s0-.02,0-.02c76.95,44.39,148.34,96.15,213.33,154.15,21.47,19.15,21.96,52.22,1.97,72.93l-74.19,76.84c-17.14,17.74-16.57,45.95.43,63.8,119.65,125.67,207.89,278.51,256.89,444.99,6.98,23.65,31.14,38.24,55.07,32.25l103.64-25.84c27.92-6.96,56.31,10.01,62.18,38.18,17.71,85.32,26.85,173,26.82,261.85h-.05s.05.02.05.02c.03,88.83-9.09,176.52-26.84,261.82-5.86,28.18-34.25,45.12-62.18,38.18l-103.64-25.84c-23.93-5.96-48.08,8.63-55.05,32.28-49,166.46-137.25,319.3-256.91,444.98-17,17.84-17.55,46.07-.41,63.8l74.19,76.84c20,20.69,19.5,53.78-1.97,72.93-65.03,58.01-136.4,109.76-213.36,154.15l-.03-.05.03.05c-76.93,44.46-157.42,80.39-240.17,107.68-27.33,9.01-56.21-7.09-64.15-34.75l-29.44-102.68c-6.8-23.7-31.53-37.33-55.47-31.54-168.66,40.8-345.16,40.78-513.82,0-23.97-5.8-48.69,7.84-55.46,31.56l-29.45,102.68c-7.92,27.66-36.82,43.76-64.14,34.75-82.74-27.31-163.25-63.24-240.17-107.7v-.03s-.02.02-.02.02c-76.95-44.39-148.33-96.13-213.33-154.13-21.47-19.17-21.97-52.24-1.97-72.95l74.2-76.82c17.13-17.75,16.57-45.96-.43-63.82-119.66-125.66-207.89-278.51-256.9-444.98-6.96-23.65-31.13-38.23-55.05-32.26l-103.66,25.84c-27.91,6.98-56.3-10-62.18-38.17-17.71-85.31-26.85-173.01-26.81-261.87-.03-88.85,9.11-176.53,26.83-261.83Z" style="fill: #6a6a6a;"/>
        <path d="m117.81,1058.64c5.86-28.17,34.25-45.12,62.17-38.17l103.65,25.84c23.93,5.96,48.08-8.63,55.05-32.28,49.01-166.46,137.26-319.3,256.91-444.97,17-17.86,17.55-46.07.41-63.82l-74.2-76.84c-20-20.68-19.49-53.76,1.98-72.92,65.02-58,136.38-109.76,213.35-154.16h.02s0,0,0,0c76.93-44.44,157.43-80.39,240.16-107.68,27.33-9.01,56.21,7.11,64.16,34.77l29.44,102.68c6.79,23.71,31.52,37.32,55.46,31.52,168.66-40.78,345.16-40.78,513.82.01,23.97,5.78,48.69-7.85,55.47-31.55l29.44-102.68c7.92-27.66,36.82-43.76,64.15-34.75,82.75,27.31,163.25,63.24,240.17,107.7v.02s0-.02,0-.02c76.95,44.39,148.34,96.15,213.33,154.15,21.47,19.15,21.96,52.22,1.97,72.93l-74.19,76.84c-17.14,17.74-16.57,45.95.43,63.8,119.65,125.67,207.89,278.51,256.89,444.99,6.98,23.65,31.14,38.24,55.07,32.25l103.64-25.84c27.92-6.96,56.31,10.01,62.18,38.18,17.71,85.32,26.85,173,26.82,261.85h-.05s.05.02.05.02c.03,88.83-9.09,176.52-26.84,261.82-5.86,28.18-34.25,45.12-62.18,38.18l-103.64-25.84c-23.93-5.96-48.08,8.63-55.05,32.28-49,166.46-137.25,319.3-256.91,444.98-17,17.84-17.55,46.07-.4,63.8l74.19,76.84c20,20.69,19.5,53.78-1.97,72.93-65.03,58.01-136.4,109.76-213.36,154.15l-.03-.05.03.05c-76.93,44.46-157.42,80.39-240.17,107.68-27.33,9.01-56.21-7.09-64.15-34.75l-29.44-102.68c-6.8-23.7-31.53-37.33-55.47-31.54-168.66,40.8-345.16,40.78-513.82,0-23.97-5.8-48.69,7.84-55.46,31.56l-29.45,102.68c-7.92,27.66-36.82,43.76-64.14,34.75-82.74-27.31-163.25-63.24-240.17-107.7v-.03s-.02.02-.02.02c-76.95-44.39-148.33-96.13-213.33-154.13-21.47-19.17-21.97-52.24-1.97-72.95l74.2-76.82c17.13-17.75,16.57-45.96-.43-63.82-119.66-125.66-207.89-278.51-256.9-444.98-6.96-23.65-31.13-38.23-55.05-32.26l-103.66,25.84c-27.91,6.98-56.31-10-62.18-38.17-17.71-85.31-26.85-173.01-26.81-261.86-.03-88.85,9.11-176.53,26.83-261.83Z" style="fill: #737373;"/>
        <path d="m124.81,1051.64c5.86-28.17,34.25-45.12,62.17-38.17l103.65,25.84c23.93,5.96,48.08-8.63,55.05-32.28,49.01-166.46,137.26-319.3,256.91-444.97,17-17.86,17.55-46.07.41-63.82l-74.2-76.84c-20-20.68-19.49-53.76,1.98-72.92,65.02-58,136.38-109.76,213.35-154.16h.02s0,0,0,0c76.93-44.44,157.43-80.39,240.16-107.68,27.33-9.01,56.21,7.11,64.16,34.77l29.44,102.68c6.79,23.71,31.52,37.32,55.46,31.52,168.66-40.78,345.16-40.78,513.82.01,23.97,5.78,48.69-7.85,55.47-31.55l29.44-102.68c7.92-27.66,36.82-43.76,64.15-34.75,82.75,27.31,163.25,63.24,240.17,107.7v.02s0-.02,0-.02c76.95,44.39,148.34,96.15,213.33,154.15,21.47,19.15,21.96,52.22,1.97,72.93l-74.19,76.84c-17.14,17.74-16.57,45.95.43,63.8,119.65,125.67,207.89,278.51,256.89,444.99,6.98,23.65,31.14,38.24,55.07,32.25l103.64-25.84c27.92-6.96,56.31,10.01,62.18,38.18,17.71,85.32,26.85,173,26.82,261.85h-.05s.05.02.05.02c.03,88.83-9.09,176.52-26.84,261.82-5.86,28.18-34.25,45.12-62.18,38.18l-103.64-25.84c-23.93-5.96-48.08,8.63-55.05,32.28-49,166.46-137.25,319.3-256.91,444.98-17,17.84-17.55,46.07-.4,63.8l74.19,76.84c20,20.69,19.5,53.78-1.97,72.93-65.03,58.01-136.4,109.76-213.36,154.15l-.03-.05.03.05c-76.93,44.46-157.42,80.39-240.17,107.68-27.33,9.01-56.21-7.09-64.15-34.75l-29.44-102.68c-6.8-23.7-31.53-37.33-55.47-31.54-168.66,40.8-345.16,40.78-513.82,0-23.97-5.8-48.69,7.84-55.46,31.56l-29.45,102.68c-7.92,27.66-36.82,43.76-64.14,34.75-82.74-27.31-163.25-63.24-240.17-107.7v-.03s-.02.02-.02.02c-76.95-44.39-148.33-96.13-213.33-154.13-21.47-19.17-21.97-52.24-1.97-72.95l74.2-76.82c17.13-17.75,16.57-45.96-.43-63.82-119.66-125.66-207.89-278.51-256.9-444.98-6.96-23.65-31.13-38.23-55.05-32.26l-103.66,25.84c-27.92,6.98-56.31-10-62.18-38.17-17.71-85.31-26.85-173.01-26.81-261.86-.03-88.85,9.11-176.53,26.83-261.83Z" style="fill: #7c7c7c;"/>
        <path d="m131.8,1044.64c5.86-28.17,34.25-45.12,62.17-38.17l103.65,25.84c23.93,5.96,48.08-8.63,55.05-32.28,49.01-166.46,137.26-319.3,256.91-444.97,17-17.86,17.55-46.07.41-63.82l-74.2-76.84c-20-20.68-19.49-53.76,1.98-72.92,65.02-58,136.38-109.76,213.35-154.16h.02s0,0,0,0c76.93-44.44,157.43-80.39,240.16-107.68,27.33-9.01,56.21,7.11,64.16,34.77l29.44,102.68c6.79,23.71,31.52,37.32,55.46,31.52,168.66-40.78,345.16-40.78,513.82.02,23.97,5.78,48.69-7.85,55.47-31.55l29.44-102.68c7.92-27.66,36.82-43.76,64.15-34.75,82.75,27.31,163.25,63.24,240.17,107.7v.02s0-.02,0-.02c76.95,44.39,148.34,96.15,213.33,154.15,21.47,19.15,21.96,52.22,1.97,72.93l-74.19,76.84c-17.14,17.74-16.57,45.95.43,63.8,119.65,125.67,207.88,278.51,256.89,444.99,6.98,23.65,31.14,38.24,55.07,32.25l103.64-25.84c27.92-6.96,56.31,10.01,62.18,38.18,17.71,85.32,26.85,173,26.82,261.85h-.05s.05.02.05.02c.03,88.83-9.09,176.52-26.84,261.82-5.86,28.18-34.25,45.12-62.18,38.18l-103.64-25.84c-23.93-5.96-48.08,8.63-55.05,32.28-49,166.46-137.25,319.3-256.91,444.98-17,17.84-17.55,46.07-.4,63.8l74.19,76.84c20,20.69,19.5,53.78-1.97,72.93-65.03,58.01-136.4,109.76-213.36,154.15l-.03-.05.03.05c-76.93,44.46-157.42,80.39-240.17,107.68-27.33,9.01-56.21-7.09-64.15-34.75l-29.44-102.68c-6.8-23.7-31.53-37.33-55.47-31.54-168.66,40.8-345.16,40.78-513.82,0-23.97-5.8-48.69,7.84-55.46,31.56l-29.45,102.68c-7.92,27.66-36.82,43.76-64.14,34.75-82.74-27.31-163.25-63.24-240.17-107.69v-.03s-.02.02-.02.02c-76.95-44.39-148.33-96.13-213.33-154.13-21.47-19.17-21.97-52.24-1.97-72.95l74.2-76.82c17.13-17.75,16.57-45.96-.43-63.82-119.66-125.66-207.89-278.51-256.9-444.98-6.96-23.65-31.13-38.23-55.05-32.26l-103.66,25.84c-27.92,6.98-56.31-10-62.18-38.17-17.71-85.31-26.85-173-26.81-261.86-.04-88.85,9.1-176.53,26.83-261.83Z" style="fill: #848484;"/>
        <path d="m138.8,1037.64c5.86-28.17,34.25-45.13,62.17-38.17l103.65,25.84c23.93,5.96,48.08-8.63,55.05-32.28,49.01-166.46,137.26-319.3,256.91-444.97,17-17.86,17.55-46.07.41-63.82l-74.2-76.84c-20-20.68-19.49-53.76,1.98-72.92,65.02-58,136.38-109.76,213.35-154.16l.02.02v-.02c76.92-44.44,157.42-80.39,240.15-107.68,27.33-9.01,56.21,7.11,64.16,34.77l29.44,102.68c6.79,23.71,31.52,37.32,55.46,31.52,168.66-40.78,345.16-40.78,513.82.02,23.97,5.78,48.69-7.85,55.47-31.55l29.44-102.68c7.92-27.66,36.82-43.76,64.15-34.75,82.75,27.31,163.25,63.24,240.17,107.7v.02s0-.02,0-.02c76.95,44.39,148.34,96.14,213.33,154.15,21.47,19.15,21.96,52.22,1.97,72.93l-74.19,76.84c-17.14,17.74-16.57,45.95.43,63.8,119.65,125.67,207.88,278.51,256.89,444.99,6.98,23.65,31.14,38.24,55.07,32.25l103.64-25.84c27.92-6.96,56.31,10.01,62.18,38.18,17.71,85.32,26.85,173,26.82,261.85h-.05s.05.02.05.02c.03,88.83-9.09,176.52-26.84,261.82-5.86,28.18-34.25,45.12-62.18,38.18l-103.64-25.84c-23.93-5.96-48.08,8.63-55.05,32.28-49,166.46-137.25,319.3-256.91,444.98-16.99,17.84-17.55,46.07-.4,63.8l74.19,76.84c20,20.69,19.5,53.78-1.97,72.93-65.03,58.01-136.4,109.76-213.36,154.15l-.03-.05.03.05c-76.93,44.46-157.42,80.39-240.17,107.68-27.33,9.01-56.21-7.09-64.15-34.75l-29.44-102.68c-6.8-23.7-31.53-37.33-55.47-31.54-168.66,40.8-345.16,40.78-513.82,0-23.97-5.8-48.69,7.84-55.46,31.56l-29.45,102.68c-7.92,27.66-36.82,43.76-64.14,34.75-82.74-27.31-163.25-63.24-240.17-107.69v-.03s-.02.02-.02.02c-76.95-44.39-148.33-96.13-213.33-154.13-21.47-19.17-21.97-52.24-1.97-72.95l74.2-76.82c17.13-17.75,16.57-45.96-.43-63.82-119.66-125.66-207.89-278.51-256.9-444.98-6.96-23.65-31.13-38.23-55.05-32.26l-103.66,25.84c-27.92,6.98-56.31-10-62.18-38.17-17.71-85.31-26.85-173-26.81-261.86-.04-88.85,9.1-176.53,26.83-261.83Z" style="fill: #8d8d8d;"/>
        <path d="m145.8,1030.65c5.86-28.17,34.25-45.13,62.17-38.17l103.65,25.84c23.93,5.96,48.08-8.63,55.05-32.28,49.01-166.46,137.26-319.3,256.91-444.97,17-17.86,17.55-46.08.41-63.82l-74.2-76.84c-20-20.68-19.49-53.76,1.98-72.92,65.02-58,136.38-109.76,213.35-154.16l.02.02v-.02c76.92-44.44,157.42-80.39,240.15-107.68,27.33-9.01,56.21,7.11,64.16,34.77l29.44,102.68c6.79,23.71,31.52,37.32,55.46,31.52,168.66-40.78,345.16-40.78,513.82.02,23.97,5.78,48.69-7.85,55.47-31.55l29.44-102.68c7.92-27.66,36.82-43.76,64.15-34.75,82.75,27.31,163.25,63.24,240.18,107.7v.02s0-.02,0-.02c76.95,44.39,148.34,96.14,213.33,154.15,21.47,19.15,21.96,52.22,1.97,72.93l-74.19,76.84c-17.14,17.74-16.57,45.95.43,63.8,119.65,125.67,207.88,278.51,256.89,444.99,6.98,23.65,31.14,38.24,55.07,32.25l103.64-25.84c27.92-6.96,56.31,10.01,62.18,38.18,17.71,85.32,26.85,173,26.82,261.85h-.05s.05.02.05.02c.03,88.83-9.09,176.52-26.84,261.82-5.86,28.18-34.25,45.12-62.18,38.18l-103.64-25.84c-23.93-5.96-48.08,8.63-55.05,32.28-49,166.46-137.24,319.3-256.91,444.98-16.99,17.84-17.55,46.07-.4,63.8l74.19,76.84c20,20.69,19.5,53.78-1.97,72.93-65.03,58.01-136.4,109.76-213.36,154.15l-.03-.05.03.05c-76.93,44.46-157.42,80.39-240.17,107.68-27.33,9.01-56.21-7.09-64.15-34.75l-29.44-102.68c-6.8-23.7-31.53-37.33-55.47-31.54-168.66,40.8-345.16,40.78-513.82,0-23.97-5.8-48.69,7.84-55.46,31.56l-29.45,102.68c-7.92,27.66-36.82,43.76-64.14,34.75-82.74-27.31-163.25-63.23-240.17-107.69v-.03s-.02.02-.02.02c-76.95-44.39-148.33-96.13-213.33-154.13-21.47-19.17-21.97-52.24-1.97-72.95l74.2-76.82c17.13-17.75,16.57-45.96-.43-63.82-119.66-125.66-207.89-278.51-256.9-444.98-6.96-23.65-31.13-38.23-55.05-32.26l-103.66,25.84c-27.92,6.98-56.31-10-62.18-38.17-17.71-85.31-26.85-173-26.81-261.86-.04-88.85,9.1-176.53,26.83-261.83Z" style="fill: #969696;"/>
        <path d="m152.8,1023.65c5.86-28.17,34.25-45.13,62.17-38.17l103.65,25.84c23.93,5.96,48.08-8.63,55.05-32.28,49.01-166.46,137.26-319.3,256.91-444.97,17-17.86,17.55-46.08.41-63.82l-74.2-76.84c-19.99-20.68-19.49-53.76,1.98-72.92,65.02-58,136.38-109.76,213.35-154.16l.02.02v-.02c76.92-44.44,157.42-80.39,240.15-107.68,27.33-9.01,56.21,7.11,64.16,34.77l29.44,102.68c6.79,23.71,31.52,37.32,55.46,31.52,168.66-40.78,345.16-40.78,513.82.02,23.97,5.78,48.69-7.85,55.48-31.55l29.44-102.68c7.92-27.66,36.82-43.76,64.14-34.75,82.75,27.31,163.25,63.24,240.18,107.7v.02s0-.02,0-.02c76.95,44.39,148.34,96.14,213.33,154.15,21.47,19.15,21.96,52.22,1.97,72.93l-74.19,76.84c-17.14,17.74-16.57,45.95.43,63.8,119.65,125.67,207.88,278.51,256.89,444.99,6.98,23.65,31.14,38.24,55.07,32.25l103.64-25.84c27.92-6.96,56.31,10.01,62.18,38.18,17.71,85.32,26.85,173,26.82,261.85h-.05s.05.02.05.02c.03,88.83-9.09,176.52-26.84,261.82-5.86,28.18-34.25,45.12-62.18,38.18l-103.64-25.84c-23.93-5.96-48.08,8.63-55.05,32.28-49,166.46-137.24,319.3-256.91,444.98-16.99,17.84-17.55,46.07-.4,63.8l74.19,76.84c20,20.69,19.5,53.78-1.97,72.93-65.03,58.01-136.4,109.76-213.36,154.15l-.03-.05.03.05c-76.92,44.46-157.42,80.39-240.17,107.68-27.33,9.01-56.21-7.09-64.15-34.75l-29.44-102.68c-6.8-23.7-31.53-37.33-55.48-31.54-168.66,40.8-345.16,40.78-513.82,0-23.97-5.8-48.69,7.84-55.46,31.56l-29.45,102.68c-7.92,27.66-36.82,43.76-64.14,34.75-82.74-27.31-163.25-63.23-240.17-107.69v-.03s-.02.02-.02.02c-76.95-44.39-148.33-96.13-213.33-154.13-21.47-19.17-21.97-52.24-1.97-72.95l74.2-76.82c17.13-17.75,16.57-45.96-.43-63.82-119.66-125.66-207.9-278.51-256.9-444.98-6.96-23.65-31.13-38.23-55.05-32.26l-103.66,25.84c-27.92,6.98-56.31-10-62.18-38.17-17.71-85.31-26.85-173-26.81-261.86-.04-88.85,9.1-176.53,26.83-261.83Z" style="fill: #9f9f9f;"/>
        <path d="m159.79,1016.65c5.86-28.17,34.25-45.13,62.17-38.17l103.65,25.84c23.93,5.96,48.08-8.63,55.05-32.28,49.01-166.46,137.26-319.3,256.91-444.97,17-17.86,17.55-46.08.41-63.82l-74.2-76.84c-19.99-20.68-19.49-53.76,1.98-72.91,65.02-58,136.38-109.76,213.35-154.16l.02.02v-.02c76.92-44.44,157.42-80.39,240.15-107.68,27.33-9.01,56.21,7.11,64.16,34.77l29.44,102.68c6.79,23.71,31.52,37.32,55.46,31.52,168.66-40.78,345.16-40.78,513.82.02,23.97,5.78,48.69-7.85,55.48-31.55l29.44-102.68c7.92-27.66,36.82-43.76,64.14-34.75,82.75,27.31,163.25,63.24,240.18,107.7v.02s0-.02,0-.02c76.95,44.39,148.34,96.14,213.33,154.15,21.47,19.15,21.96,52.22,1.97,72.93l-74.19,76.84c-17.14,17.74-16.57,45.95.43,63.8,119.65,125.67,207.88,278.51,256.89,444.99,6.98,23.65,31.14,38.24,55.07,32.25l103.64-25.85c27.92-6.96,56.31,10.02,62.18,38.18,17.71,85.32,26.85,173,26.82,261.85h-.05s.05.02.05.02c.03,88.83-9.09,176.52-26.84,261.82-5.86,28.18-34.25,45.12-62.18,38.18l-103.64-25.84c-23.93-5.96-48.08,8.63-55.05,32.28-49,166.46-137.24,319.3-256.91,444.98-16.99,17.84-17.55,46.07-.4,63.8l74.19,76.84c20,20.69,19.5,53.78-1.97,72.93-65.03,58.01-136.4,109.76-213.36,154.15l-.03-.05.03.05c-76.92,44.46-157.42,80.39-240.17,107.68-27.33,9.01-56.21-7.09-64.15-34.75l-29.44-102.68c-6.8-23.7-31.53-37.33-55.48-31.54-168.66,40.8-345.16,40.79-513.82,0-23.97-5.8-48.69,7.84-55.46,31.56l-29.45,102.68c-7.92,27.66-36.82,43.76-64.14,34.75-82.74-27.31-163.25-63.23-240.17-107.69v-.03s-.02.02-.02.02c-76.95-44.39-148.33-96.13-213.33-154.13-21.47-19.17-21.97-52.24-1.97-72.95l74.2-76.82c17.13-17.75,16.57-45.96-.43-63.82-119.66-125.66-207.9-278.51-256.9-444.98-6.96-23.65-31.13-38.23-55.05-32.26l-103.66,25.84c-27.92,6.98-56.31-10-62.18-38.17-17.71-85.31-26.85-173-26.81-261.86-.04-88.85,9.1-176.53,26.83-261.83Z" style="fill: #a8a8a8;"/>
        <path d="m166.79,1009.65c5.85-28.17,34.25-45.13,62.17-38.17l103.65,25.84c23.93,5.96,48.08-8.63,55.05-32.28,49.01-166.46,137.26-319.3,256.91-444.97,17-17.86,17.55-46.08.41-63.82l-74.2-76.84c-19.99-20.68-19.49-53.76,1.98-72.91,65.02-58,136.38-109.76,213.35-154.16l.02.02v-.02c76.92-44.44,157.42-80.39,240.15-107.68,27.33-9.01,56.21,7.11,64.16,34.77l29.44,102.68c6.79,23.71,31.52,37.33,55.46,31.52,168.66-40.78,345.16-40.78,513.82.02,23.97,5.78,48.69-7.85,55.48-31.55l29.44-102.68c7.92-27.66,36.82-43.76,64.14-34.75,82.75,27.31,163.25,63.24,240.18,107.7v.02s0-.02,0-.02c76.95,44.39,148.34,96.14,213.33,154.15,21.47,19.15,21.96,52.22,1.97,72.93l-74.19,76.84c-17.14,17.74-16.57,45.95.43,63.8,119.65,125.67,207.88,278.51,256.89,444.99,6.98,23.65,31.14,38.24,55.07,32.25l103.64-25.85c27.92-6.96,56.31,10.02,62.18,38.18,17.71,85.32,26.85,173,26.82,261.85h-.05s.05.02.05.02c.03,88.83-9.09,176.52-26.84,261.82-5.86,28.18-34.25,45.12-62.18,38.18l-103.64-25.84c-23.93-5.96-48.08,8.63-55.05,32.28-49.01,166.46-137.24,319.3-256.91,444.98-16.99,17.84-17.55,46.07-.4,63.8l74.19,76.84c20,20.69,19.5,53.78-1.97,72.93-65.03,58.01-136.4,109.76-213.36,154.15l-.03-.05.03.05c-76.92,44.46-157.42,80.39-240.17,107.68-27.33,9.01-56.21-7.09-64.15-34.75l-29.44-102.68c-6.8-23.7-31.53-37.33-55.48-31.54-168.66,40.8-345.16,40.79-513.82,0-23.97-5.8-48.69,7.84-55.46,31.56l-29.45,102.68c-7.92,27.66-36.82,43.76-64.14,34.75-82.74-27.31-163.25-63.23-240.17-107.69v-.03s-.02.02-.02.02c-76.95-44.39-148.33-96.13-213.33-154.13-21.47-19.17-21.97-52.24-1.97-72.95l74.2-76.82c17.13-17.75,16.57-45.96-.43-63.82-119.66-125.66-207.9-278.51-256.91-444.98-6.96-23.65-31.13-38.23-55.05-32.26l-103.66,25.84c-27.92,6.98-56.31-10-62.18-38.17-17.71-85.31-26.85-173-26.81-261.86-.04-88.85,9.1-176.53,26.82-261.83Z" style="fill: #b1b1b1;"/>
        <path d="m173.79,1002.66c5.85-28.17,34.25-45.13,62.17-38.17l103.65,25.84c23.93,5.96,48.08-8.63,55.05-32.28,49.01-166.46,137.26-319.3,256.91-444.97,17-17.86,17.55-46.08.41-63.82l-74.2-76.84c-19.99-20.68-19.49-53.76,1.98-72.91,65.02-58,136.38-109.76,213.35-154.16l.02.02v-.02c76.92-44.44,157.42-80.39,240.15-107.68,27.33-9.01,56.21,7.11,64.16,34.77l29.44,102.68c6.79,23.71,31.52,37.33,55.46,31.52,168.66-40.78,345.16-40.78,513.82.02,23.97,5.78,48.69-7.85,55.48-31.56l29.44-102.68c7.92-27.66,36.82-43.76,64.14-34.75,82.75,27.31,163.25,63.24,240.18,107.7v.02s0-.02,0-.02c76.95,44.39,148.34,96.14,213.33,154.15,21.47,19.15,21.96,52.22,1.97,72.93l-74.19,76.84c-17.14,17.74-16.57,45.95.43,63.8,119.65,125.67,207.88,278.51,256.89,444.99,6.98,23.65,31.14,38.24,55.07,32.25l103.64-25.85c27.92-6.96,56.31,10.02,62.18,38.18,17.71,85.32,26.85,173,26.82,261.85h-.05s.05.02.05.02c.03,88.83-9.09,176.52-26.84,261.82-5.86,28.18-34.25,45.12-62.18,38.18l-103.64-25.84c-23.93-5.96-48.08,8.63-55.05,32.28-49.01,166.46-137.24,319.3-256.91,444.98-16.99,17.84-17.55,46.07-.4,63.8l74.19,76.84c20,20.69,19.5,53.78-1.97,72.93-65.03,58.01-136.4,109.76-213.36,154.15l-.03-.05.03.05c-76.92,44.46-157.42,80.39-240.17,107.68-27.33,9.01-56.21-7.09-64.15-34.75l-29.44-102.68c-6.8-23.7-31.53-37.33-55.48-31.54-168.66,40.8-345.16,40.79-513.82,0-23.97-5.8-48.69,7.84-55.46,31.56l-29.45,102.68c-7.92,27.66-36.82,43.76-64.14,34.75-82.74-27.31-163.25-63.23-240.17-107.69v-.03s-.02.02-.02.02c-76.95-44.39-148.33-96.13-213.33-154.13-21.47-19.17-21.97-52.24-1.97-72.95l74.2-76.82c17.12-17.75,16.57-45.96-.43-63.82-119.66-125.66-207.9-278.51-256.91-444.98-6.96-23.65-31.13-38.23-55.05-32.26l-103.66,25.84c-27.92,6.98-56.31-10-62.18-38.17-17.71-85.31-26.85-173-26.81-261.86-.04-88.85,9.1-176.53,26.82-261.83Z" style="fill: #b9b9b9;"/>
        <path d="m180.79,995.66c5.85-28.17,34.25-45.13,62.17-38.17l103.65,25.84c23.93,5.96,48.08-8.63,55.05-32.28,49.01-166.46,137.26-319.3,256.91-444.97,17-17.86,17.55-46.08.41-63.82l-74.21-76.84c-19.99-20.68-19.49-53.76,1.98-72.91,65.02-58,136.38-109.76,213.35-154.16l.02.02v-.02c76.92-44.44,157.43-80.39,240.15-107.68,27.33-9.01,56.21,7.11,64.16,34.77l29.44,102.68c6.79,23.71,31.52,37.33,55.46,31.52,168.66-40.78,345.16-40.78,513.82.02,23.97,5.78,48.69-7.85,55.48-31.56l29.44-102.68c7.92-27.66,36.82-43.76,64.14-34.75,82.75,27.31,163.25,63.24,240.18,107.7v.02s0-.02,0-.02c76.95,44.39,148.34,96.14,213.33,154.15,21.47,19.15,21.96,52.22,1.97,72.93l-74.19,76.84c-17.14,17.74-16.57,45.95.43,63.8,119.65,125.67,207.88,278.51,256.89,444.99,6.98,23.65,31.14,38.24,55.07,32.25l103.64-25.85c27.92-6.96,56.31,10.02,62.18,38.18,17.71,85.32,26.85,173,26.82,261.85h-.05s.05.02.05.02c.03,88.83-9.09,176.52-26.84,261.81-5.86,28.18-34.25,45.12-62.18,38.18l-103.64-25.84c-23.93-5.96-48.08,8.63-55.05,32.28-49.01,166.46-137.24,319.3-256.91,444.98-16.99,17.84-17.55,46.07-.4,63.8l74.19,76.84c20,20.69,19.5,53.78-1.97,72.93-65.03,58.01-136.4,109.76-213.36,154.15l-.03-.05.03.05c-76.92,44.46-157.42,80.39-240.17,107.68-27.33,9.01-56.21-7.1-64.15-34.75l-29.44-102.68c-6.81-23.7-31.53-37.33-55.48-31.54-168.66,40.8-345.16,40.79-513.82,0-23.97-5.8-48.69,7.84-55.46,31.56l-29.45,102.68c-7.92,27.66-36.82,43.76-64.14,34.75-82.74-27.3-163.25-63.23-240.17-107.69v-.03s-.02.02-.02.02c-76.95-44.39-148.33-96.13-213.33-154.13-21.47-19.17-21.97-52.24-1.97-72.95l74.2-76.82c17.12-17.75,16.57-45.96-.43-63.82-119.67-125.66-207.9-278.51-256.91-444.98-6.96-23.65-31.13-38.23-55.05-32.26l-103.66,25.84c-27.92,6.98-56.31-10-62.18-38.17-17.71-85.31-26.85-173-26.81-261.86-.04-88.85,9.1-176.53,26.82-261.83Z" style="fill: #c2c2c2;"/>
        <path d="m187.79,988.66c5.85-28.17,34.25-45.13,62.17-38.17l103.65,25.84c23.93,5.96,48.08-8.63,55.05-32.28,49.01-166.46,137.26-319.3,256.91-444.97,17-17.86,17.55-46.08.41-63.82l-74.21-76.84c-19.99-20.68-19.49-53.76,1.98-72.91,65.02-58,136.38-109.76,213.35-154.16l.02.02v-.02c76.92-44.44,157.43-80.39,240.15-107.68,27.33-9.01,56.21,7.11,64.16,34.77l29.44,102.68c6.79,23.71,31.52,37.33,55.46,31.52,168.66-40.78,345.16-40.78,513.82.02,23.97,5.78,48.69-7.85,55.48-31.56l29.44-102.68c7.92-27.65,36.82-43.76,64.14-34.75,82.75,27.31,163.25,63.24,240.18,107.7v.02s0-.02,0-.02c76.95,44.39,148.34,96.14,213.33,154.15,21.47,19.15,21.96,52.22,1.97,72.93l-74.19,76.84c-17.14,17.74-16.57,45.95.43,63.8,119.65,125.67,207.88,278.51,256.89,444.99,6.98,23.65,31.14,38.24,55.07,32.25l103.64-25.85c27.92-6.96,56.31,10.02,62.18,38.18,17.71,85.32,26.85,173,26.82,261.85h-.05s.05.02.05.02c.03,88.83-9.09,176.52-26.84,261.81-5.86,28.18-34.25,45.12-62.18,38.18l-103.64-25.84c-23.93-5.96-48.08,8.63-55.05,32.28-49.01,166.46-137.24,319.3-256.91,444.98-16.99,17.84-17.55,46.07-.4,63.8l74.19,76.84c20,20.69,19.5,53.78-1.97,72.93-65.03,58.01-136.4,109.76-213.36,154.15l-.03-.05.03.05c-76.92,44.46-157.42,80.39-240.17,107.68-27.33,9.01-56.21-7.1-64.15-34.75l-29.44-102.68c-6.81-23.7-31.53-37.33-55.48-31.54-168.66,40.8-345.16,40.79-513.82,0-23.97-5.8-48.69,7.84-55.46,31.56l-29.45,102.68c-7.92,27.66-36.82,43.76-64.14,34.75-82.74-27.3-163.25-63.23-240.17-107.69v-.03s-.02.02-.02.02c-76.95-44.39-148.33-96.13-213.33-154.13-21.47-19.17-21.97-52.24-1.97-72.95l74.2-76.82c17.12-17.75,16.57-45.96-.43-63.82-119.67-125.66-207.9-278.51-256.91-444.98-6.96-23.65-31.13-38.23-55.05-32.26l-103.66,25.84c-27.92,6.98-56.31-10-62.18-38.17-17.71-85.31-26.85-173-26.81-261.86-.04-88.85,9.1-176.53,26.82-261.83Z" style="fill: #cbcbcb;"/>
        <path d="m194.78,981.66c5.85-28.17,34.25-45.13,62.17-38.17l103.65,25.84c23.93,5.96,48.08-8.63,55.05-32.28,49.01-166.46,137.26-319.3,256.91-444.97,17-17.86,17.55-46.08.41-63.82l-74.21-76.84c-19.99-20.68-19.49-53.76,1.98-72.91,65.02-58,136.38-109.76,213.35-154.16l.02.02v-.02c76.92-44.44,157.43-80.39,240.15-107.68,27.33-9.01,56.21,7.11,64.16,34.77l29.44,102.68c6.79,23.71,31.52,37.33,55.46,31.52,168.66-40.78,345.16-40.78,513.82.02,23.97,5.78,48.69-7.85,55.48-31.56l29.44-102.68c7.92-27.65,36.82-43.76,64.14-34.75,82.75,27.31,163.25,63.24,240.18,107.7h-.01s.01,0,.01,0c76.95,44.39,148.34,96.14,213.33,154.15,21.47,19.15,21.96,52.22,1.97,72.93l-74.19,76.84c-17.14,17.74-16.57,45.95.43,63.8,119.65,125.67,207.88,278.51,256.89,444.99,6.98,23.65,31.14,38.24,55.07,32.25l103.64-25.85c27.92-6.96,56.31,10.02,62.18,38.18,17.71,85.32,26.85,172.99,26.82,261.85h-.05s.05.02.05.02c.03,88.83-9.09,176.52-26.84,261.81-5.86,28.18-34.25,45.12-62.18,38.18l-103.64-25.84c-23.93-5.96-48.08,8.63-55.05,32.28-49.01,166.46-137.24,319.3-256.91,444.98-16.99,17.84-17.55,46.07-.4,63.8l74.19,76.84c20,20.69,19.51,53.78-1.97,72.93-65.03,58.01-136.4,109.76-213.36,154.15l-.03-.05.03.05c-76.92,44.46-157.42,80.39-240.17,107.68-27.33,9.01-56.21-7.1-64.15-34.75l-29.44-102.68c-6.81-23.7-31.53-37.33-55.48-31.54-168.66,40.8-345.16,40.79-513.82,0-23.97-5.8-48.69,7.84-55.46,31.56l-29.45,102.68c-7.92,27.66-36.82,43.76-64.14,34.75-82.74-27.3-163.25-63.23-240.17-107.69l.02-.03-.03.02c-76.95-44.39-148.33-96.13-213.33-154.13-21.47-19.18-21.97-52.24-1.97-72.95l74.2-76.82c17.12-17.75,16.57-45.96-.43-63.82-119.67-125.66-207.9-278.51-256.91-444.98-6.96-23.65-31.13-38.23-55.05-32.26l-103.66,25.84c-27.92,6.98-56.31-10-62.18-38.17-17.71-85.31-26.85-173-26.81-261.86-.04-88.85,9.1-176.53,26.82-261.83Z" style="fill: #d4d4d4;"/>
        <path d="m201.78,974.66c5.85-28.17,34.25-45.13,62.17-38.17l103.65,25.84c23.93,5.96,48.08-8.63,55.05-32.28,49.01-166.46,137.26-319.3,256.91-444.97,17-17.86,17.55-46.08.41-63.82l-74.21-76.85c-19.99-20.68-19.49-53.76,1.98-72.91,65.02-58.01,136.38-109.76,213.35-154.16l.02.02v-.02c76.92-44.44,157.43-80.39,240.15-107.68,27.33-9.01,56.21,7.11,64.16,34.77l29.44,102.68c6.79,23.71,31.52,37.33,55.46,31.52,168.66-40.78,345.16-40.78,513.82.02,23.97,5.78,48.69-7.85,55.48-31.56l29.44-102.68c7.92-27.65,36.82-43.76,64.14-34.75,82.75,27.31,163.25,63.24,240.18,107.7h-.01s.01,0,.01,0c76.95,44.39,148.34,96.14,213.33,154.15,21.47,19.15,21.96,52.22,1.97,72.93l-74.19,76.85c-17.14,17.74-16.57,45.95.43,63.8,119.65,125.67,207.88,278.51,256.89,444.99,6.98,23.65,31.14,38.24,55.07,32.25l103.64-25.85c27.92-6.96,56.31,10.02,62.18,38.18,17.71,85.32,26.85,172.99,26.82,261.85h-.05s.05.02.05.02c.03,88.83-9.09,176.52-26.84,261.81-5.86,28.18-34.25,45.12-62.18,38.18l-103.64-25.84c-23.93-5.96-48.08,8.63-55.05,32.28-49.01,166.46-137.24,319.3-256.91,444.98-16.99,17.84-17.55,46.07-.4,63.8l74.19,76.84c20,20.69,19.51,53.78-1.97,72.93-65.03,58.01-136.4,109.76-213.36,154.15l-.03-.05.03.05c-76.92,44.46-157.42,80.39-240.17,107.68-27.33,9.01-56.21-7.1-64.14-34.75l-29.44-102.68c-6.81-23.7-31.53-37.33-55.48-31.54-168.66,40.8-345.16,40.79-513.82,0-23.97-5.8-48.69,7.84-55.46,31.56l-29.45,102.68c-7.92,27.66-36.82,43.76-64.14,34.75-82.74-27.3-163.25-63.23-240.17-107.69l.02-.03-.03.02c-76.95-44.39-148.33-96.13-213.33-154.13-21.47-19.18-21.97-52.24-1.97-72.95l74.21-76.82c17.12-17.75,16.57-45.96-.43-63.82-119.67-125.66-207.9-278.51-256.91-444.98-6.96-23.65-31.13-38.23-55.05-32.26l-103.66,25.84c-27.92,6.97-56.31-10-62.18-38.17-17.71-85.31-26.85-173-26.8-261.86-.04-88.85,9.1-176.53,26.82-261.83Z" style="fill: #ddd;"/>
        <path d="m208.78,967.67c5.85-28.17,34.25-45.13,62.17-38.17l103.65,25.84c23.93,5.96,48.08-8.63,55.05-32.28,49.01-166.46,137.26-319.3,256.91-444.97,17-17.86,17.55-46.08.41-63.82l-74.21-76.85c-19.99-20.68-19.49-53.76,1.98-72.91,65.02-58.01,136.38-109.76,213.35-154.16l.02.02v-.02c76.92-44.44,157.43-80.39,240.15-107.68,27.33-9.01,56.21,7.11,64.16,34.77l29.44,102.68c6.79,23.71,31.52,37.33,55.46,31.52,168.66-40.78,345.16-40.78,513.82.02,23.97,5.78,48.69-7.85,55.48-31.56l29.44-102.68c7.92-27.65,36.82-43.76,64.14-34.75,82.75,27.31,163.25,63.24,240.18,107.7h-.01s.01,0,.01,0c76.95,44.39,148.34,96.14,213.33,154.15,21.47,19.15,21.96,52.22,1.97,72.93l-74.19,76.85c-17.14,17.74-16.57,45.95.43,63.8,119.65,125.67,207.88,278.51,256.89,444.99,6.98,23.65,31.14,38.23,55.07,32.25l103.64-25.85c27.92-6.97,56.31,10.02,62.18,38.18,17.71,85.32,26.85,172.99,26.82,261.84h-.05l.05.02c.03,88.83-9.09,176.52-26.84,261.81-5.86,28.18-34.25,45.12-62.18,38.18l-103.64-25.84c-23.93-5.96-48.08,8.63-55.05,32.28-49.01,166.46-137.24,319.3-256.91,444.98-16.99,17.84-17.55,46.07-.4,63.8l74.19,76.84c20,20.69,19.51,53.78-1.97,72.93-65.03,58.01-136.4,109.76-213.36,154.15l-.03-.05.03.05c-76.92,44.46-157.42,80.39-240.17,107.68-27.33,9.01-56.21-7.1-64.14-34.75l-29.44-102.68c-6.81-23.7-31.53-37.33-55.48-31.54-168.66,40.8-345.16,40.79-513.82,0-23.97-5.8-48.69,7.84-55.46,31.56l-29.45,102.68c-7.92,27.66-36.82,43.76-64.14,34.75-82.74-27.3-163.25-63.23-240.17-107.69l.02-.03-.03.02c-76.95-44.39-148.33-96.13-213.33-154.13-21.47-19.18-21.97-52.24-1.97-72.95l74.21-76.82c17.12-17.75,16.57-45.96-.43-63.82-119.67-125.66-207.9-278.51-256.91-444.98-6.96-23.65-31.13-38.23-55.05-32.26l-103.66,25.84c-27.92,6.97-56.31-10-62.18-38.17-17.71-85.31-26.85-173-26.8-261.86-.04-88.85,9.1-176.53,26.82-261.83Z" style="fill: #e6e6e6;"/>
      </g>
    </mask>
    <mask id="mask-1" x="1474.35" y="894.93" width="1292.35" height="1582.47" maskUnits="userSpaceOnUse">
      <g>
        <path d="m2335.8,2121.4s-39.07-41.27-49.39-83.99c-5.04-20.9-3.22-42.16,13.47-59.08,119.66-125.68,188.78-234.88,237.79-401.35,8.97-22.15,26.52-34.98,46.26-42.22,41.93-15.39,93.72-5.4,93.72-5.4,27.91,6.96,56.32-10.01,62.16-38.17,39.75-191.36,36.62-394.63-17.41-596.28l-1248.05,334.43,334.4,1248.05c201.65-54.03,379.26-152.96,525.1-283.06,21.44-19.16,21.95-52.22,1.95-72.93Z"/>
        <path d="m2335.8,2121.4s-41.26-43.49-50.94-83.54c-5.8-20.7-4.05-42.4,12.66-59.38,119.66-125.68,189.98-237.61,238.98-404.07,8.84-22.24,26.95-34.77,46.81-41.6,39.6-13.61,94.34-3.45,94.34-3.45,27.91,6.96,56.32-10.01,62.16-38.17,39.75-191.36,36.62-394.63-17.41-596.28l-1248.05,334.43,334.4,1248.05c201.65-54.03,379.26-152.96,525.1-283.06,21.44-19.16,21.95-52.22,1.95-72.93Z" style="fill: #0e0e0e;"/>
        <path d="m2335.8,2121.4s-43.46-45.72-52.49-83.09c-6.55-20.5-4.89-42.64,11.84-59.67,119.66-125.68,191.17-240.34,240.18-406.8,8.72-22.34,27.35-34.56,47.36-40.98,37.21-11.94,94.96-1.49,94.96-1.49,27.91,6.96,56.32-10.01,62.16-38.17,39.75-191.36,36.62-394.63-17.41-596.28l-1248.05,334.43,334.4,1248.05c201.65-54.03,379.26-152.96,525.1-283.06,21.44-19.16,21.95-52.22,1.95-72.93Z" style="fill: #1d1d1d;"/>
        <path d="m2335.8,2121.4s-45.66-47.94-54.04-82.64c-7.31-20.31-5.72-42.87,11.03-59.97,119.66-125.68,192.37-243.06,241.37-409.53,8.59-22.43,27.72-34.33,47.91-40.36,34.78-10.37,95.58.46,95.58.46,27.91,6.96,56.32-10.01,62.16-38.17,39.75-191.36,36.62-394.63-17.41-596.28l-1248.05,334.43,334.4,1248.05c201.65-54.03,379.26-152.96,525.1-283.06,21.44-19.16,21.95-52.22,1.95-72.93Z" style="fill: #2b2b2b;"/>
        <path d="m2335.8,2121.4s-47.85-50.16-55.59-82.2c-8.06-20.11-6.56-43.11,10.21-60.27,119.66-125.68,193.56-245.79,242.57-412.25,8.47-22.53,28.07-34.1,48.46-39.73,32.29-8.92,96.2,2.41,96.2,2.41,27.91,6.96,56.32-10.01,62.16-38.17,39.75-191.36,36.62-394.63-17.41-596.28l-1248.05,334.43,334.4,1248.05c201.65-54.03,379.26-152.96,525.1-283.06,21.44-19.16,21.95-52.22,1.95-72.93Z" style="fill: #393939;"/>
        <path d="m2335.8,2121.4s-50.05-52.38-57.14-81.75c-8.82-19.91-7.39-43.35,9.4-60.56,119.66-125.67,194.76-248.52,243.76-414.98,8.34-22.62,28.39-33.87,49.01-39.11,29.76-7.57,96.82,4.36,96.82,4.36,27.91,6.96,56.32-10.01,62.16-38.17,39.75-191.36,36.62-394.63-17.41-596.28l-1248.05,334.43,334.4,1248.05c201.65-54.03,379.26-152.96,525.1-283.06,21.44-19.16,21.95-52.22,1.95-72.93Z" style="fill: #484848;"/>
        <path d="m2335.8,2121.4s-52.24-54.6-58.69-81.3c-9.57-19.72-8.23-43.58,8.58-60.86,119.66-125.67,195.95-251.24,244.96-417.7,8.22-22.72,28.69-33.62,49.55-38.49,27.18-6.34,97.45,6.32,97.45,6.32,27.91,6.96,56.32-10.01,62.16-38.17,39.75-191.36,36.62-394.63-17.41-596.28l-1248.05,334.43,334.4,1248.05c201.65-54.03,379.26-152.96,525.1-283.06,21.44-19.16,21.95-52.22,1.95-72.93Z" style="fill: #565656;"/>
        <path d="m2335.8,2121.4s-54.44-56.83-60.25-80.85c-10.33-19.52-9.06-43.82,7.77-61.15,119.66-125.67,197.15-253.97,246.15-420.43,8.09-22.82,28.96-33.37,50.1-37.87,24.57-5.23,98.07,8.27,98.07,8.27,27.91,6.96,56.32-10.01,62.16-38.17,39.75-191.36,36.62-394.63-17.41-596.28l-1248.05,334.43,334.4,1248.05c201.65-54.03,379.26-152.96,525.1-283.06,21.44-19.16,21.95-52.22,1.95-72.93Z" style="fill: #646464;"/>
        <path d="m2335.8,2121.4s-56.64-59.05-61.8-80.4c-11.08-19.32-9.89-44.06,6.95-61.45,119.66-125.67,198.34-256.7,247.35-423.15,7.96-22.91,29.21-33.12,50.65-37.25,21.93-4.23,98.69,10.22,98.69,10.22,27.91,6.96,56.32-10.01,62.16-38.17,39.75-191.36,36.62-394.63-17.41-596.28l-1248.05,334.43,334.4,1248.05c201.65-54.03,379.26-152.96,525.1-283.06,21.44-19.16,21.95-52.22,1.95-72.93Z" style="fill: #737373;"/>
        <path d="m2335.8,2121.4s-58.83-61.27-63.35-79.96c-11.84-19.13-10.73-44.29,6.13-61.75,119.66-125.67,199.54-259.43,248.55-425.88,7.84-23.01,29.11-36.82,51.2-36.63,18.34-6.73,99.31,12.17,99.31,12.17,27.91,6.96,56.32-10.01,62.16-38.17,39.75-191.36,36.62-394.63-17.41-596.28l-1248.05,334.43,334.4,1248.05c201.65-54.03,379.26-152.96,525.1-283.06,21.44-19.16,21.95-52.22,1.95-72.93Z" style="fill: #818181;"/>
        <path d="m2335.8,2121.4s-61.03-63.49-64.9-79.51c-12.59-18.93-11.56-44.53,5.32-62.04,119.66-125.67,200.74-262.15,249.74-428.61,7.71-23.1,29.4-37.02,51.75-36.01,15.72-5.77,99.93,14.13,99.93,14.13,27.91,6.96,56.32-10.01,62.16-38.17,39.75-191.36,36.62-394.63-17.41-596.28l-1248.05,334.43,334.4,1248.05c201.65-54.03,379.26-152.96,525.1-283.06,21.44-19.16,21.95-52.22,1.95-72.93Z" style="fill: #8f8f8f;"/>
        <path d="m2335.8,2121.4s-63.23-65.71-66.45-79.06c-13.35-18.73-12.4-44.77,4.5-62.34,119.66-125.67,201.93-264.88,250.94-431.33,7.59-23.2,29.68-37.23,52.3-35.38,13.1-4.81,100.55,16.08,100.55,16.08,27.91,6.96,56.32-10.01,62.16-38.17,39.75-191.36,36.62-394.63-17.41-596.28l-1248.05,334.43,334.4,1248.05c201.65-54.03,379.26-152.96,525.1-283.06,21.44-19.16,21.95-52.22,1.95-72.93Z" style="fill: #9e9e9e;"/>
        <path d="m2335.8,2121.4s-65.42-67.94-68-78.61c-14.1-18.54-13.23-45.01,3.69-62.64,119.66-125.66,203.13-267.61,252.13-434.06,7.46-23.29,29.97-37.43,52.85-34.76,10.48-3.85,101.18,18.03,101.18,18.03,27.91,6.96,56.32-10.01,62.16-38.17,39.75-191.36,36.62-394.63-17.41-596.28l-1248.05,334.43,334.4,1248.05c201.65-54.03,379.26-152.96,525.1-283.06,21.44-19.16,21.95-52.22,1.95-72.93Z" style="fill: #acacac;"/>
        <path d="m2335.8,2121.4s-67.62-70.16-69.55-78.17c-14.86-18.34-14.06-45.24,2.87-62.93,119.66-125.66,204.32-270.33,253.33-436.78,7.34-23.39,30.26-37.64,53.4-34.14,7.86-2.89,101.8,19.99,101.8,19.99,27.91,6.96,56.32-10.01,62.16-38.17,39.75-191.36,36.62-394.63-17.41-596.28l-1248.05,334.43,334.4,1248.05c201.65-54.03,379.26-152.96,525.1-283.06,21.44-19.16,21.95-52.22,1.95-72.93Z" style="fill: #bababa;"/>
        <path d="m2335.8,2121.4s-69.81-72.38-71.1-77.72c-15.61-18.14-14.9-45.48,2.06-63.23,119.66-125.66,205.52-273.06,254.52-439.51,7.21-23.49,30.55-37.84,53.95-33.52,5.24-1.92,102.42,21.94,102.42,21.94,27.91,6.96,56.32-10.01,62.16-38.17,39.75-191.36,36.62-394.63-17.41-596.28l-1248.05,334.43,334.4,1248.05c201.65-54.03,379.26-152.96,525.1-283.06,21.44-19.16,21.95-52.22,1.95-72.93Z" style="fill: #c9c9c9;"/>
        <path d="m2335.8,2121.4s-72.01-74.6-72.65-77.27c-16.37-17.95-15.73-45.72,1.24-63.52,119.66-125.66,206.71-275.79,255.72-442.23,7.09-23.58,30.83-38.05,54.5-32.9,2.62-.96,103.04,23.89,103.04,23.89,27.91,6.96,56.32-10.01,62.16-38.17,39.75-191.36,36.62-394.63-17.41-596.28l-1248.05,334.43,334.4,1248.05c201.65-54.03,379.26-152.96,525.1-283.06,21.44-19.16,21.95-52.22,1.95-72.93Z" style="fill: #d7d7d7;"/>
        <path d="m2335.8,2121.4l-74.21-76.82c-17.12-17.75-16.57-45.95.43-63.82,119.66-125.66,207.91-278.51,256.91-444.96,6.96-23.68,31.12-38.25,55.05-32.28l103.66,25.84c27.91,6.96,56.32-10.01,62.16-38.17,39.75-191.36,36.62-394.63-17.41-596.28l-1248.05,334.43,334.4,1248.05c201.65-54.03,379.26-152.96,525.1-283.06,21.44-19.16,21.95-52.22,1.95-72.93Z" style="fill: #e6e6e6;"/>
      </g>
    </mask>
    <mask id="mask-2" x="1474.33" y="-18.71" width="1292.35" height="1582.47" maskUnits="userSpaceOnUse">
      <g>
        <path d="m2677.61,929.34s-55.27,13.19-97.44.76c-20.61-6.08-38.1-18.29-44.43-41.22-49.01-166.45-109.01-280.93-228.66-406.59-14.69-18.84-17.04-40.45-13.44-61.17,7.65-44.01,42.16-83.85,42.16-83.85,20-20.7,19.51-53.78-1.97-72.91-145.84-130.11-323.45-229.03-525.09-283.07l-334.41,1248.05,1248.04,334.42c54.04-201.64,57.18-404.93,17.41-596.26-5.85-28.16-34.25-45.12-62.17-38.16Z"/>
        <path d="m2677.61,929.34s-58.3,13.98-97.83,2.33c-20.82-5.33-38.72-17.68-45.09-40.66-49.01-166.45-110.77-283.33-230.43-408.99-14.84-18.77-16.65-40.72-12.63-61.34,8.02-41.1,44.17-83.41,44.17-83.41,20-20.7,19.51-53.78-1.97-72.91-145.84-130.11-323.45-229.03-525.09-283.07l-334.41,1248.05,1248.04,334.42c54.04-201.64,57.18-404.93,17.41-596.26-5.85-28.16-34.25-45.12-62.17-38.16Z" style="fill: #0e0e0e;"/>
        <path d="m2677.61,929.34s-61.32,14.77-98.22,3.9c-21.03-4.58-39.35-17.08-45.76-40.1-49.01-166.45-112.54-285.73-232.2-411.39-14.98-18.71-16.26-40.95-11.81-61.5,8.27-38.2,46.17-82.97,46.17-82.97,20-20.7,19.51-53.78-1.97-72.91-145.84-130.11-323.45-229.03-525.09-283.07l-334.41,1248.05,1248.04,334.42c54.04-201.64,57.18-404.93,17.41-596.26-5.85-28.16-34.25-45.12-62.17-38.16Z" style="fill: #1d1d1d;"/>
        <path d="m2677.61,929.34s-64.34,15.56-98.61,5.46c-21.24-3.83-39.97-16.48-46.42-39.54-49.01-166.45-114.3-288.13-233.96-413.79-15.13-18.65-15.88-41.16-11-61.67,8.41-35.31,48.17-82.54,48.17-82.54,20-20.7,19.51-53.78-1.97-72.91-145.84-130.11-323.45-229.03-525.09-283.07l-334.41,1248.05,1248.04,334.42c54.04-201.64,57.18-404.93,17.41-596.26-5.85-28.16-34.25-45.12-62.17-38.16Z" style="fill: #2b2b2b;"/>
        <path d="m2677.61,929.34s-67.37,16.35-98.99,7.03c-21.44-3.07-40.6-15.87-47.08-38.99-49.01-166.45-116.07-290.53-235.73-416.19-15.27-18.59-15.51-41.35-10.19-61.83,8.42-32.43,50.18-82.1,50.18-82.1,20-20.7,19.51-53.78-1.97-72.91-145.84-130.11-323.45-229.03-525.09-283.07l-334.41,1248.05,1248.04,334.42c54.04-201.64,57.18-404.93,17.41-596.26-5.85-28.16-34.25-45.12-62.17-38.16Z" style="fill: #393939;"/>
        <path d="m2677.61,929.34s-70.39,17.14-99.38,8.6c-21.65-2.32-41.22-15.27-47.75-38.43-49.01-166.45-117.83-292.93-237.49-418.59-15.42-18.53-15.14-41.51-9.37-62,8.32-29.56,52.18-81.66,52.18-81.66,20-20.7,19.51-53.78-1.97-72.91-145.84-130.11-323.45-229.03-525.09-283.07l-334.41,1248.05,1248.04,334.42c54.04-201.64,57.18-404.93,17.41-596.26-5.85-28.16-34.25-45.12-62.17-38.16Z" style="fill: #484848;"/>
        <path d="m2677.61,929.34s-73.41,17.93-99.77,10.17c-21.86-1.57-41.84-14.67-48.41-37.87-49.01-166.45-119.6-295.32-239.26-420.99-15.56-18.47-14.78-41.65-8.56-62.16,8.1-26.72,54.18-81.22,54.18-81.22,20-20.7,19.51-53.78-1.97-72.91-145.84-130.11-323.45-229.03-525.09-283.07l-334.41,1248.05,1248.04,334.42c54.04-201.64,57.18-404.93,17.41-596.26-5.85-28.16-34.25-45.12-62.17-38.16Z" style="fill: #565656;"/>
        <path d="m2677.61,929.34s-76.44,18.73-100.16,11.73c-22.07-.82-42.47-14.06-49.07-37.31-49.01-166.45-121.37-297.72-241.02-423.39-15.71-18.4-14.42-41.76-7.75-62.32,7.76-23.9,56.18-80.79,56.18-80.79,20-20.7,19.51-53.78-1.97-72.91-145.84-130.11-323.45-229.03-525.09-283.07l-334.41,1248.05,1248.04,334.42c54.04-201.64,57.18-404.93,17.41-596.26-5.85-28.16-34.25-45.12-62.17-38.16Z" style="fill: #646464;"/>
        <path d="m2677.61,929.34s-79.46,19.52-100.54,13.3c-22.27-.07-43.09-13.46-49.73-36.75-49.01-166.45-123.13-300.12-242.79-425.79-15.85-18.34-14.08-41.85-6.93-62.49,7.3-21.11,58.19-80.35,58.19-80.35,20-20.7,19.51-53.78-1.97-72.91-145.84-130.11-323.45-229.03-525.09-283.07l-334.41,1248.05,1248.04,334.42c54.04-201.64,57.18-404.93,17.41-596.26-5.85-28.16-34.25-45.12-62.17-38.16Z" style="fill: #737373;"/>
        <path d="m2677.61,929.34s-82.48,20.31-100.93,14.87c-22.48.68-43.72-12.86-50.4-36.19-49.01-166.45-124.9-302.52-244.55-428.19-16-18.28-17.33-43.61-6.12-62.65,3.35-19.25,60.19-79.91,60.19-79.91,20-20.7,19.51-53.78-1.97-72.91-145.84-130.11-323.45-229.03-525.09-283.07l-334.41,1248.05,1248.04,334.42c54.04-201.64,57.18-404.93,17.41-596.26-5.85-28.16-34.25-45.12-62.17-38.16Z" style="fill: #818181;"/>
        <path d="m2677.61,929.34s-85.5,21.1-101.32,16.44c-22.69,1.43-44.34-12.25-51.06-35.63-49.01-166.45-126.66-304.92-246.32-430.59-16.14-18.22-17.36-43.96-5.31-62.82,2.87-16.5,62.19-79.47,62.19-79.47,20-20.7,19.51-53.78-1.97-72.91-145.84-130.11-323.45-229.03-525.09-283.07l-334.41,1248.05,1248.04,334.42c54.04-201.64,57.18-404.93,17.41-596.26-5.85-28.16-34.25-45.12-62.17-38.16Z" style="fill: #8f8f8f;"/>
        <path d="m2677.61,929.34s-88.53,21.89-101.71,18.01c-22.9,2.18-44.97-11.65-51.72-35.07-49.01-166.45-128.43-307.32-248.08-432.99-16.29-18.16-17.39-44.31-4.49-62.98,2.39-13.75,64.19-79.03,64.19-79.03,20-20.7,19.51-53.78-1.97-72.91-145.84-130.11-323.45-229.03-525.09-283.07l-334.41,1248.05,1248.04,334.42c54.04-201.64,57.18-404.93,17.41-596.26-5.85-28.16-34.25-45.12-62.17-38.16Z" style="fill: #9e9e9e;"/>
        <path d="m2677.61,929.34s-91.55,22.68-102.09,19.57c-23.1,2.93-45.59-11.05-52.39-34.51-49.01-166.45-130.19-309.72-249.85-435.39-16.43-18.1-17.42-44.66-3.68-63.15,1.91-11,66.2-78.6,66.2-78.6,20-20.7,19.51-53.78-1.97-72.91-145.84-130.11-323.45-229.03-525.09-283.07l-334.41,1248.05,1248.04,334.42c54.04-201.64,57.18-404.93,17.41-596.26-5.85-28.16-34.25-45.12-62.17-38.16Z" style="fill: #acacac;"/>
        <path d="m2677.61,929.34s-94.57,23.47-102.48,21.14c-23.31,3.69-46.21-10.44-53.05-33.96-49.01-166.45-131.96-312.12-251.62-437.79-16.58-18.03-17.45-45.01-2.87-63.31,1.43-8.25,68.2-78.16,68.2-78.16,20-20.7,19.51-53.78-1.97-72.91-145.84-130.11-323.45-229.03-525.09-283.07l-334.41,1248.05,1248.04,334.42c54.04-201.64,57.18-404.93,17.41-596.26-5.85-28.16-34.25-45.12-62.17-38.16Z" style="fill: #bababa;"/>
        <path d="m2677.61,929.34s-97.6,24.26-102.87,22.71c-23.52,4.44-46.84-9.84-53.71-33.4-49.01-166.45-133.72-314.52-253.38-440.19-16.72-17.97-17.49-45.36-2.05-63.48.96-5.5,70.2-77.72,70.2-77.72,20-20.7,19.51-53.78-1.97-72.91-145.84-130.11-323.45-229.03-525.09-283.07l-334.41,1248.05,1248.04,334.42c54.04-201.64,57.18-404.93,17.41-596.26-5.85-28.16-34.25-45.12-62.17-38.16Z" style="fill: #c9c9c9;"/>
        <path d="m2677.61,929.34s-100.62,25.05-103.26,24.28c-23.73,5.19-47.46-9.24-54.37-32.84-49.01-166.45-135.49-316.92-255.15-442.59-16.87-17.91-17.52-45.71-1.24-63.64.48-2.75,72.2-77.28,72.2-77.28,20-20.7,19.51-53.78-1.97-72.91-145.84-130.11-323.45-229.03-525.09-283.07l-334.41,1248.05,1248.04,334.42c54.04-201.64,57.18-404.93,17.41-596.26-5.85-28.16-34.25-45.12-62.17-38.16Z" style="fill: #d7d7d7;"/>
        <path d="m2677.61,929.34l-103.64,25.84c-23.93,5.94-48.09-8.63-55.04-32.28-49.01-166.45-137.25-319.31-256.91-444.99-17.01-17.85-17.55-46.06-.43-63.8l74.21-76.85c20-20.7,19.51-53.78-1.97-72.91-145.84-130.11-323.45-229.03-525.09-283.07l-334.41,1248.05,1248.04,334.42c54.04-201.64,57.18-404.93,17.41-596.26-5.85-28.16-34.25-45.12-62.17-38.16Z" style="fill: #e6e6e6;"/>
      </g>
    </mask>
    <mask id="mask-3" x="560.7" y="0" width="1827.28" height="1229.35" maskUnits="userSpaceOnUse">
      <g>
        <path d="m1816.16,37.27s-16.22,54.47-48.05,84.77c-15.58,14.82-34.9,23.86-57.93,17.88-168.64-40.78-297.78-46.06-466.45-5.26-23.66,3.31-43.56-5.47-59.68-18.96-34.29-28.62-51.54-78.44-51.54-78.44-7.92-27.65-36.82-43.78-64.15-34.75-185.59,61.24-360.06,165.6-507.66,313.21l913.63,913.62,913.65-913.62c-147.63-147.61-322.1-251.98-507.68-313.21-27.33-9.01-56.21,7.1-64.14,34.76Z"/>
        <path d="m1816.16,37.27s-17.05,57.48-46.89,85.89c-15.03,15.38-34.69,24.7-57.77,18.73-168.64-40.78-300.74-45.73-469.41-4.93-23.68,3.47-43.59-5.95-59.42-19.74-31.57-27.51-50.16-79.96-50.16-79.96-7.92-27.65-36.82-43.78-64.15-34.75-185.59,61.24-360.06,165.6-507.66,313.21l913.63,913.62,913.65-913.62c-147.63-147.61-322.1-251.98-507.68-313.21-27.33-9.01-56.21,7.1-64.14,34.76Z" style="fill: #0e0e0e;"/>
        <path d="m1816.16,37.27s-17.87,60.5-45.72,87.01c-14.49,15.93-34.48,25.54-57.62,19.58-168.64-40.78-303.71-45.4-472.37-4.6-23.7,3.62-43.6-6.4-59.16-20.53-28.93-26.27-48.78-81.47-48.78-81.47-7.92-27.65-36.82-43.78-64.15-34.75-185.59,61.24-360.06,165.6-507.66,313.21l913.63,913.62,913.65-913.62c-147.63-147.61-322.1-251.98-507.68-313.21-27.33-9.01-56.21,7.1-64.14,34.76Z" style="fill: #1d1d1d;"/>
        <path d="m1816.16,37.27s-18.7,63.51-44.56,88.13c-13.94,16.48-34.27,26.39-57.47,20.44-168.64-40.78-306.67-45.07-475.33-4.27-23.72,3.78-43.59-6.84-58.89-21.32-26.36-24.94-47.4-82.99-47.4-82.99-7.92-27.65-36.82-43.78-64.15-34.75-185.59,61.24-360.06,165.6-507.66,313.21l913.63,913.62,913.65-913.62c-147.63-147.61-322.1-251.98-507.68-313.21-27.33-9.01-56.21,7.1-64.14,34.76Z" style="fill: #2b2b2b;"/>
        <path d="m1816.16,37.27s-19.52,66.52-43.4,89.25c-13.39,17.04-34.05,27.23-57.31,21.29-168.64-40.78-309.63-44.74-478.29-3.94-23.74,3.93-43.56-7.25-58.63-22.1-23.86-23.52-46.02-84.5-46.02-84.5-7.92-27.65-36.82-43.78-64.15-34.75-185.59,61.24-360.06,165.6-507.66,313.21l913.63,913.62,913.65-913.62c-147.63-147.61-322.1-251.98-507.68-313.21-27.33-9.01-56.21,7.1-64.14,34.76Z" style="fill: #393939;"/>
        <path d="m1816.16,37.27s-20.35,69.54-42.23,90.37c-12.84,17.59-33.84,28.07-57.16,22.14-168.65-40.78-312.59-44.41-481.25-3.62-23.76,4.09-43.52-7.65-58.37-22.89-21.43-21.99-44.64-86.02-44.64-86.02-7.92-27.65-36.82-43.78-64.15-34.75-185.59,61.24-360.06,165.6-507.66,313.21l913.63,913.62,913.65-913.62c-147.63-147.61-322.1-251.98-507.68-313.21-27.33-9.01-56.21,7.1-64.14,34.76Z" style="fill: #484848;"/>
        <path d="m1816.16,37.27s-21.18,72.55-41.07,91.49c-12.29,18.15-33.63,28.91-57.01,22.99-168.65-40.78-315.55-44.08-484.21-3.29-23.78,4.24-43.45-8.03-58.1-23.68-19.08-20.38-43.26-87.53-43.26-87.53-7.92-27.65-36.82-43.78-64.15-34.75-185.59,61.24-360.06,165.6-507.66,313.21l913.63,913.62,913.65-913.62c-147.63-147.61-322.1-251.98-507.68-313.21-27.33-9.01-56.21,7.1-64.14,34.76Z" style="fill: #565656;"/>
        <path d="m1816.16,37.27s-22,75.56-39.91,92.61c-11.74,18.7-33.42,29.75-56.86,23.85-168.65-40.78-318.51-43.75-487.17-2.96-23.79,4.4-43.37-8.39-57.84-24.46-16.81-18.67-41.88-89.05-41.88-89.05-7.92-27.65-36.82-43.78-64.15-34.75-185.59,61.24-360.06,165.6-507.66,313.21l913.63,913.62,913.65-913.62c-147.63-147.61-322.1-251.98-507.68-313.21-27.33-9.01-56.21,7.1-64.14,34.76Z" style="fill: #646464;"/>
        <path d="m1816.16,37.27s-22.83,78.58-38.74,93.72c-11.2,19.26-33.21,30.59-56.7,24.7-168.65-40.78-321.47-43.42-490.13-2.63-23.81,4.56-43.27-8.74-57.57-25.25-14.62-16.88-40.5-90.56-40.5-90.56-7.92-27.65-36.82-43.78-64.15-34.75-185.59,61.24-360.06,165.6-507.66,313.21l913.63,913.62,913.65-913.62c-147.63-147.61-322.1-251.98-507.68-313.21-27.33-9.01-56.21,7.1-64.14,34.76Z" style="fill: #737373;"/>
        <path d="m1816.16,37.27s-23.65,81.59-37.58,94.84c-10.65,19.81-33,31.44-56.55,25.55-168.65-40.78-324.43-43.09-493.09-2.3-23.83,4.71-46.44-6.8-57.31-26.04-15-12.52-39.12-92.08-39.12-92.08-7.92-27.65-36.82-43.78-64.15-34.75-185.59,61.24-360.06,165.6-507.66,313.21l913.63,913.62,913.65-913.62c-147.63-147.61-322.1-251.98-507.68-313.21-27.33-9.01-56.21,7.1-64.14,34.76Z" style="fill: #818181;"/>
        <path d="m1816.16,37.27s-24.48,84.6-36.42,95.96c-10.1,20.36-32.79,32.28-56.4,26.41-168.65-40.78-327.39-42.76-496.06-1.97-23.85,4.87-46.76-6.95-57.05-26.82-12.86-10.73-37.73-93.59-37.73-93.59-7.92-27.65-36.82-43.78-64.15-34.75-185.59,61.24-360.06,165.6-507.66,313.21l913.63,913.62,913.65-913.62c-147.63-147.61-322.1-251.98-507.68-313.21-27.33-9.01-56.21,7.1-64.14,34.76Z" style="fill: #8f8f8f;"/>
        <path d="m1816.16,37.27s-25.31,87.62-35.25,97.08c-9.55,20.92-32.57,33.12-56.24,27.26-168.65-40.79-330.36-42.43-499.02-1.64-23.87,5.02-47.08-7.09-56.78-27.61-10.72-8.94-36.35-95.11-36.35-95.11-7.92-27.65-36.82-43.78-64.15-34.75-185.59,61.24-360.06,165.6-507.66,313.21l913.63,913.62,913.65-913.62c-147.63-147.61-322.1-251.98-507.68-313.21-27.33-9.01-56.21,7.1-64.14,34.76Z" style="fill: #9e9e9e;"/>
        <path d="m1816.16,37.27s-26.13,90.63-34.09,98.2c-9,21.47-32.36,33.96-56.09,28.11-168.65-40.79-333.32-42.11-501.98-1.31-23.89,5.18-47.39-7.24-56.52-28.4-8.57-7.16-34.97-96.62-34.97-96.62-7.92-27.65-36.82-43.78-64.15-34.75-185.59,61.24-360.06,165.6-507.66,313.21l913.63,913.62,913.65-913.62c-147.63-147.61-322.1-251.98-507.68-313.21-27.33-9.01-56.21,7.1-64.14,34.76Z" style="fill: #acacac;"/>
        <path d="m1816.16,37.27s-26.96,93.64-32.93,99.32c-8.45,22.03-32.15,34.8-55.94,28.97-168.66-40.79-336.28-41.78-504.94-.99-23.91,5.33-47.71-7.39-56.26-29.18-6.43-5.37-33.59-98.13-33.59-98.13-7.92-27.65-36.82-43.78-64.15-34.75-185.59,61.24-360.06,165.6-507.66,313.21l913.63,913.62,913.65-913.62c-147.63-147.61-322.1-251.98-507.68-313.21-27.33-9.01-56.21,7.1-64.14,34.76Z" style="fill: #bababa;"/>
        <path d="m1816.16,37.27s-27.79,96.66-31.76,100.44c-7.9,22.58-31.94,35.64-55.78,29.82-168.66-40.79-339.24-41.45-507.9-.66-23.93,5.49-48.03-7.54-55.99-29.97-4.29-3.58-32.21-99.65-32.21-99.65-7.92-27.65-36.82-43.78-64.15-34.75-185.59,61.24-360.06,165.6-507.66,313.21l913.63,913.62,913.65-913.62c-147.63-147.61-322.1-251.98-507.68-313.21-27.33-9.01-56.21,7.1-64.14,34.76Z" style="fill: #c9c9c9;"/>
        <path d="m1816.16,37.27s-28.61,99.67-30.6,101.56c-7.36,23.14-31.73,36.48-55.63,30.67-168.66-40.79-342.2-41.12-510.86-.33-23.95,5.65-48.35-7.69-55.73-30.76-2.14-1.79-30.83-101.16-30.83-101.16-7.92-27.65-36.82-43.78-64.15-34.75-185.59,61.24-360.06,165.6-507.66,313.21l913.63,913.62,913.65-913.62c-147.63-147.61-322.1-251.98-507.68-313.21-27.33-9.01-56.21,7.1-64.14,34.76Z" style="fill: #d7d7d7;"/>
        <path d="m1816.16,37.27l-29.44,102.68c-6.81,23.69-31.52,37.33-55.48,31.52-168.66-40.79-345.16-40.79-513.82,0-23.97,5.8-48.67-7.83-55.46-31.54l-29.45-102.68c-7.92-27.65-36.82-43.78-64.15-34.75-185.59,61.24-360.06,165.6-507.66,313.21l913.63,913.62,913.65-913.62c-147.63-147.61-322.1-251.98-507.68-313.21-27.33-9.01-56.21,7.1-64.14,34.76Z" style="fill: #e6e6e6;"/>
      </g>
    </mask>
    <mask id="mask-4" x="303.28" y="331.29" width="2075.27" height="2075.1" maskUnits="userSpaceOnUse">
      <g>
        <path d="m2101.19,1507.53c0-496.4-402.56-899-898.96-899s-898.95,402.49-898.95,899,402.45,898.92,898.97,898.86c496.45.06,898.94-402.42,898.94-898.86Z" style="fill: #010101;"/>
        <path d="m2110.14,1498.58c0-496.41-402.56-899-898.96-899-496.5,0-898.96,402.49-898.95,899,0,496.37,402.45,898.92,898.97,898.86,496.45.06,898.94-402.43,898.94-898.86Z" style="fill: #0a0a0a;"/>
        <path d="m2119.09,1489.64c0-496.41-402.56-899-898.96-899-496.5,0-898.96,402.48-898.95,899,0,496.37,402.45,898.92,898.97,898.86,496.45.06,898.94-402.43,898.94-898.86Z" style="fill: #121212;"/>
        <path d="m2128.03,1480.69c0-496.41-402.56-899-898.96-898.99-496.51,0-898.96,402.48-898.95,898.99-.01,496.37,402.45,898.92,898.97,898.87,496.45.06,898.94-402.43,898.94-898.87Z" style="fill: #191818;"/>
        <path d="m2136.98,1471.74c0-496.42-402.56-899-898.96-898.99-496.51,0-898.96,402.48-898.95,898.99-.01,496.37,402.45,898.92,898.96,898.87,496.45.05,898.94-402.44,898.94-898.87Z" style="fill: #1f1e1e;"/>
        <path d="m2145.93,1462.8c0-496.42-402.56-898.99-898.96-898.99-496.51,0-898.97,402.47-898.95,898.99-.02,496.38,402.45,898.92,898.96,898.87,496.45.05,898.95-402.44,898.95-898.87Z" style="fill: #252423;"/>
        <path d="m2154.87,1453.85c0-496.43-402.56-898.99-898.96-898.98-496.51,0-898.97,402.47-898.95,898.98-.02,496.38,402.45,898.93,898.96,898.88,496.45.05,898.95-402.44,898.95-898.88Z" style="fill: #2a2929;"/>
        <path d="m2163.82,1444.91c0-496.43-402.56-898.99-898.96-898.98-496.51-.01-898.97,402.47-898.95,898.98-.03,496.38,402.45,898.93,898.96,898.88,496.45.05,898.95-402.45,898.95-898.88Z" style="fill: #302e2e;"/>
        <path d="m2172.77,1435.96c0-496.43-402.56-898.99-898.96-898.98-496.51-.01-898.98,402.46-898.95,898.98-.03,496.38,402.45,898.93,898.96,898.88,496.45.05,898.95-402.45,898.95-898.88Z" style="fill: #353433;"/>
        <path d="m2181.72,1427.01c0-496.44-402.56-898.99-898.96-898.97-496.51-.01-898.98,402.46-898.95,898.97-.03,496.38,402.45,898.93,898.96,898.88,496.45.04,898.95-402.46,898.95-898.88Z" style="fill: #3b3938;"/>
        <path d="m2190.66,1418.07c0-496.44-402.56-898.99-898.96-898.97-496.51-.01-898.98,402.46-898.95,898.97-.04,496.38,402.45,898.93,898.96,898.89,496.45.04,898.95-402.46,898.95-898.89Z" style="fill: #403e3e;"/>
        <path d="m2199.61,1409.12c0-496.45-402.56-898.99-898.97-898.97-496.51-.02-898.99,402.45-898.95,898.97-.04,496.38,402.45,898.93,898.96,898.89,496.45.04,898.96-402.46,898.96-898.89Z" style="fill: #464443;"/>
        <path d="m2208.56,1400.18c0-496.45-402.56-898.98-898.97-898.97-496.51-.02-898.99,402.45-898.95,898.97-.04,496.39,402.45,898.93,898.96,898.89,496.45.04,898.96-402.47,898.96-898.89Z" style="fill: #4c4949;"/>
        <path d="m2217.5,1391.23c0-496.45-402.55-898.98-898.97-898.96-496.51-.02-898.99,402.45-898.95,898.96-.05,496.39,402.45,898.93,898.96,898.9,496.45.04,898.96-402.47,898.96-898.9Z" style="fill: #524f4f;"/>
        <path d="m2226.45,1382.28c0-496.46-402.55-898.98-898.97-898.96-496.51-.02-899,402.44-898.95,898.96-.05,496.39,402.45,898.93,898.95,898.9,496.45.03,898.96-402.47,898.96-898.9Z" style="fill: #585555;"/>
        <path d="m2235.4,1373.34c0-496.46-402.55-898.98-898.97-898.96-496.51-.02-899,402.44-898.94,898.96-.05,496.39,402.45,898.93,898.95,898.9,496.45.03,898.96-402.48,898.96-898.9Z" style="fill: #5e5b5b;"/>
        <path d="m2244.35,1364.39c0-496.46-402.55-898.98-898.97-898.95-496.51-.02-899,402.44-898.94,898.95-.06,496.39,402.45,898.93,898.95,898.9,496.45.03,898.96-402.48,898.96-898.9Z" style="fill: #646161;"/>
        <path d="m2253.29,1355.44c0-496.47-402.55-898.98-898.97-898.95-496.51-.02-899,402.43-898.94,898.95-.06,496.39,402.45,898.94,898.95,898.91,496.45.03,898.96-402.49,898.96-898.91Z" style="fill: #6b6868;"/>
        <path d="m2262.24,1346.5c0-496.47-402.55-898.97-898.97-898.95-496.51-.03-899.01,402.43-898.94,898.95-.06,496.39,402.45,898.94,898.95,898.91,496.45.03,898.97-402.49,898.97-898.91Z" style="fill: #726f6f;"/>
        <path d="m2271.19,1337.55c0-496.48-402.55-898.97-898.97-898.95-496.51-.03-899.01,402.43-898.94,898.95-.07,496.4,402.45,898.94,898.95,898.91,496.45.02,898.97-402.49,898.97-898.91Z" style="fill: #797676;"/>
        <path d="m2280.13,1328.61c0-496.48-402.55-898.97-898.97-898.94-496.51-.03-899.01,402.42-898.94,898.94-.07,496.4,402.45,898.94,898.95,898.92,496.45.02,898.97-402.5,898.97-898.92Z" style="fill: #807e7e;"/>
        <path d="m2289.08,1319.66c0-496.48-402.55-898.97-898.98-898.94-496.51-.03-899.02,402.42-898.94,898.94-.08,496.4,402.45,898.94,898.95,898.92,496.45.02,898.97-402.5,898.97-898.92Z" style="fill: #888686;"/>
        <path d="m2298.03,1310.71c0-496.49-402.55-898.97-898.98-898.94-496.52-.03-899.02,402.42-898.94,898.94-.08,496.4,402.45,898.94,898.95,898.92,496.45.02,898.97-402.5,898.97-898.92Z" style="fill: #908e8e;"/>
        <path d="m2306.98,1301.77c0-496.49-402.55-898.97-898.98-898.93-496.52-.03-899.02,402.41-898.94,898.93-.08,496.4,402.45,898.94,898.94,898.93,496.44.02,898.97-402.51,898.97-898.93Z" style="fill: #989696;"/>
        <path d="m2315.92,1292.82c0-496.5-402.55-898.97-898.98-898.93-496.52-.04-899.03,402.41-898.94,898.93-.09,496.4,402.45,898.94,898.94,898.93,496.44.01,898.97-402.51,898.97-898.93Z" style="fill: #a19e9f;"/>
        <path d="m2324.87,1283.88c0-496.5-402.55-898.96-898.98-898.93-496.52-.04-899.03,402.41-898.94,898.93-.09,496.4,402.45,898.94,898.94,898.93,496.44.01,898.98-402.51,898.98-898.93Z" style="fill: #a9a7a8;"/>
        <path d="m2333.82,1274.93c0-496.5-402.55-898.96-898.98-898.92-496.52-.04-899.03,402.4-898.94,898.92-.09,496.41,402.45,898.94,898.94,898.93,496.44.01,898.98-402.52,898.98-898.93Z" style="fill: #b2b1b1;"/>
        <path d="m2342.77,1265.98c0-496.51-402.55-898.96-898.98-898.92-496.52-.04-899.03,402.4-898.94,898.92-.1,496.41,402.45,898.95,898.94,898.94,496.44,0,898.98-402.52,898.98-898.94Z" style="fill: #bbbaba;"/>
        <path d="m2351.71,1257.04c0-496.51-402.55-898.96-898.98-898.92-496.52-.04-899.04,402.4-898.94,898.92-.1,496.41,402.45,898.95,898.94,898.94,496.44,0,898.98-402.53,898.98-898.94Z" style="fill: #c5c4c4;"/>
        <path d="m2360.66,1248.09c0-496.52-402.54-898.96-898.98-898.92-496.52-.04-899.04,402.39-898.94,898.92-.1,496.41,402.45,898.95,898.94,898.94,496.44,0,898.98-402.53,898.98-898.94Z" style="fill: #cfcece;"/>
        <path d="m2369.61,1239.15c0-496.52-402.54-898.96-898.98-898.91-496.52-.04-899.04,402.39-898.94,898.91-.11,496.41,402.45,898.95,898.94,898.95,496.44,0,898.98-402.53,898.98-898.95Z" style="fill: #d9d9d9;"/>
        <path d="m2378.55,1230.2c0-496.52-402.54-898.96-898.98-898.91-496.52-.05-899.05,402.39-898.94,898.91-.11,496.41,402.45,898.95,898.94,898.95s898.98-402.54,898.98-898.95Z" style="fill: #e6e6e6;"/>
      </g>
    </mask>
    <radialGradient id="radial-gradient" cx="11718.17" cy="1388.1" fx="11718.17" fy="1388.1" r="1615.53" gradientTransform="translate(13421.42 -386.36) rotate(-180) scale(1 -1)" gradientUnits="userSpaceOnUse">
      <stop offset=".35" stop-color="#3c3c3c"/>
      <stop offset="1" stop-color="#fff"/>
    </radialGradient>
  </defs>
  <g style="isolation: isolate;">
    <g id="Layer_2" data-name="Layer 2">
      <g id="Layer_1-2" data-name="Layer 1">
        <g style="opacity: .12;">
          <g id="Circle_Segments">
            <g style="mask: url(#mask);">
              <path id="Shadow" d="m1827.52,16.88c12.9-14.23,33.18-20.65,52.69-14.21,82.75,27.31,163.25,63.24,240.18,107.7v.02s0-.02,0-.02c76.95,44.39,148.34,96.14,213.33,154.15,21.47,19.15,21.96,52.22,1.97,72.93l-74.19,76.85c-17.14,17.74-16.57,45.95.43,63.8,119.65,125.67,207.88,278.51,256.89,444.99,6.98,23.65,31.14,38.23,55.07,32.25l103.64-25.85c27.92-6.97,56.31,10.02,62.18,38.18,17.71,85.32,26.85,172.99,26.82,261.84h-.05l.05.02c.03,88.83-9.09,176.52-26.84,261.81-2.22,10.73-7.73,19.81-15.22,26.58l-178.39,178.38c-12.17,13.5-31.45,19.91-50.51,15.15l-40.58-10.11c-49.31,102.38-114.34,196.89-193.09,279.59-16.99,17.84-17.55,46.07-.4,63.8l74.19,76.84c19.89,20.57,19.49,53.4-1.63,72.6l-182.28,182.27c-65.03,58.01-136.4,109.76-213.36,154.15l-.03-.05.03.05c-76.93,44.46-157.42,80.38-240.17,107.68-27.33,9.02-56.21-7.09-64.16-34.76l-29.43-102.68c-6.79-23.7-31.52-37.32-55.46-31.53-152.68,36.92-311.75,40.3-465.64,10.37l-144.55,144.41c-12.9,14.23-33.18,20.64-52.69,14.2-82.74-27.31-163.25-63.24-240.17-107.69v-.03h-.02c-76.95-44.37-148.33-96.11-213.33-154.12-21.47-19.17-21.97-52.23-1.97-72.95l74.19-76.83c17.14-17.74,16.58-45.95-.43-63.82-119.66-125.66-207.88-278.52-256.89-444.97-6.97-23.65-31.14-38.24-55.05-32.27l-103.66,25.84c-27.91,6.98-56.3-10-62.17-38.16C9.11,1587.98-.03,1500.29,0,1411.44c-.03-88.85,9.11-176.54,26.84-261.83,2.24-10.72,7.75-19.8,15.23-26.57l178.37-178.38c12.19-13.5,31.45-19.9,50.51-15.15l40.58,10.11c49.31-102.36,114.34-196.87,193.09-279.57,16.99-17.87,17.55-46.08.41-63.82l-74.2-76.84c-19.89-20.57-19.48-53.39,1.65-72.59l182.28-182.28c65.02-58.01,136.38-109.76,213.35-154.16l.02.02v-.02c76.92-44.44,157.43-80.39,240.15-107.68,27.33-9.01,56.21,7.11,64.16,34.77l29.44,102.68c6.79,23.71,31.52,37.33,55.46,31.52,152.7-36.91,311.77-40.28,465.66-10.36l144.54-144.39Z" style="fill: #e3e3e3; mix-blend-mode: multiply;"/>
            </g>
            <g id="Circle_Segments-2" data-name="Circle_Segments">
              <path d="m614.85,2194.35c-21.47-19.17-21.97-52.23-1.99-72.94l74.21-76.82c17.12-17.75,16.57-45.95-.43-63.82-119.65-125.66-207.88-278.51-256.91-444.98-6.95-23.65-31.12-38.23-55.05-32.26l-103.64,25.84c-27.91,6.97-56.32-10.01-62.17-38.17-17.73-85.32-26.85-173-26.82-261.86h1292.27s-646.14,1119.15-646.14,1119.15c-76.97-44.38-148.33-96.13-213.33-154.14Z" style="fill: #fff;"/>
              <path d="m1880.3,2456.19c-27.34,9-56.21-7.09-64.16-34.76l-29.44-102.68c-6.81-23.71-31.52-37.33-55.48-31.54-168.66,40.8-345.15,40.79-513.8,0-23.97-5.8-48.69,7.83-55.48,31.56l-29.43,102.68c-7.92,27.65-36.82,43.76-64.15,34.75-82.75-27.3-163.25-63.23-240.18-107.7l646.14-1119.14h0s646.14,1119.14,646.14,1119.14c-76.92,44.46-157.41,80.39-240.15,107.69Z" style="fill: #9ba4ad;"/>
              <g>
                <g style="mask: url(#mask-1);">
                  <path d="m2518.93,1535.8c-49.01,166.45-137.25,319.3-256.91,444.96-16.99,17.87-17.55,46.07-.43,63.82l74.21,76.82s-86.66-91.59-35.92-143.07c119.66-125.68,188.78-234.88,237.79-401.35,28.03-69.2,139.97-47.62,139.97-47.62l-103.66-25.84c-23.93-5.98-48.09,8.6-55.05,32.28Z" style="fill: #ccc; mix-blend-mode: multiply;"/>
                </g>
                <path d="m2739.79,1491.19c-5.87,28.17-34.26,45.12-62.19,38.18l-103.62-25.84c-23.93-5.96-48.1,8.63-55.05,32.28-49.01,166.46-137.26,319.3-256.91,444.97-17,17.86-17.56,46.08-.41,63.81l74.21,76.84c20,20.68,19.49,53.78-1.98,72.93-65.02,58.01-136.38,109.76-213.35,154.15l-646.14-1119.13h1292.28c.03,88.84-9.09,176.52-26.82,261.83Z" style="fill: #808285;"/>
              </g>
              <g>
                <g style="mask: url(#mask-2);">
                  <path d="m2262.02,477.92c119.66,125.67,207.91,278.53,256.91,444.99,6.95,23.65,31.1,38.22,55.04,32.28l103.64-25.84s-122.66,29.26-141.87-40.46c-49.01-166.45-109.01-280.93-228.66-406.59-45.92-58.88,28.73-145.02,28.73-145.02l-74.21,76.85c-17.12,17.74-16.58,45.95.43,63.8Z" style="fill: #ccc; mix-blend-mode: multiply;"/>
                </g>
                <path d="m2333.82,264.36c21.47,19.15,21.95,52.22,1.97,72.93l-74.21,76.84c-17.12,17.75-16.57,45.96.43,63.81,119.65,125.67,207.89,278.52,256.91,444.99,6.96,23.65,31.12,38.23,55.05,32.24l103.66-25.83c27.9-6.96,56.31,10.01,62.16,38.18,17.73,85.31,26.85,172.99,26.82,261.84h-1292.26L2120.48,110.21c76.95,44.39,148.31,96.14,213.33,154.15Z" style="fill: #a7a9ac;"/>
              </g>
              <g>
                <g style="mask: url(#mask-3);">
                  <path d="m1217.42,171.48c168.66-40.79,345.16-40.79,513.82,0,23.96,5.8,48.67-7.83,55.48-31.52l29.44-102.68s-35.99,120.85-105.98,102.64c-168.64-40.78-297.78-46.06-466.45-5.26-73.94,10.31-111.23-97.4-111.23-97.4l29.45,102.68c6.79,23.71,31.5,37.35,55.46,31.54Z" style="fill: #ccc; mix-blend-mode: multiply;"/>
                </g>
                <path d="m1068.36,2.51c27.33-9.01,56.21,7.11,64.15,34.76l29.43,102.68c6.81,23.71,31.51,37.33,55.48,31.52,168.66-40.79,345.16-40.79,513.82.02,23.96,5.79,48.67-7.85,55.46-31.56l29.45-102.68c7.92-27.65,36.82-43.76,64.14-34.75,82.74,27.3,163.23,63.23,240.17,107.7l-646.12,1119.13h-.02L828.19,110.19c76.92-44.45,157.42-80.39,240.17-107.68Z" style="fill: #808285;"/>
              </g>
              <path d="m208.87,967.51c5.86-28.17,34.25-45.13,62.18-38.17l103.64,25.84c23.93,5.96,48.08-8.63,55.04-32.28,49-166.45,137.27-319.3,256.92-444.97,17-17.87,17.54-46.08.41-63.82l-74.21-76.85c-19.99-20.68-19.49-53.76,1.97-72.91,65.01-58.01,136.39-109.76,213.36-154.16l646.14,1119.15H182.04c-.03-88.85,9.09-176.53,26.83-261.83Z" style="fill: #fff;"/>
            </g>
          </g>
          <g id="Center_Circle">
            <g style="mask: url(#mask-4);">
              <path id="Shadow-2" data-name="Shadow" d="m839.49,599.13c162.96-165.28,389.53-267.84,640.08-267.84,496.44-.05,898.98,402.39,898.98,898.91,0,250.53-102.64,476.96-267.86,640.02l-268.41,268.45c-162.98,165.23-389.54,267.78-640.03,267.72-496.52.06-898.97-402.49-898.97-898.86,0-250.48,102.52-477.06,267.86-640.03l268.35-268.38Z" style="fill: url(#radial-gradient); mix-blend-mode: multiply;"/>
            </g>
            <path id="Center_Circle-2" data-name="Center_Circle" d="m1479.57,2129.15c496.44,0,898.98-402.47,898.98-898.95s-402.54-898.91-898.98-898.91-898.94,402.53-898.94,898.91,402.42,898.95,898.94,898.95Z" style="fill: #fff;"/>
          </g>
        </g>
      </g>
    </g>
  </g>
</svg>