<?xml version="1.0" encoding="UTF-8"?>
<svg id="Layer_2" data-name="Layer 2" xmlns="http://www.w3.org/2000/svg" viewBox="0 0 1132.92 343.47">
  <g id="Layer_1-2" data-name="Layer 1">
    <text transform="translate(868.61 65.94) scale(.58)" style="fill: #414042; font-family: Univers-BlackExt, &apos;Univers BlackExt&apos;; font-size: 78.78px; font-weight: 800; letter-spacing: -.02em;"><tspan x="0" y="0">®</tspan></text>
    <text transform="translate(886.75 92.17)" style="fill: #414042; font-family: Univers-BlackExt, &apos;Univers BlackExt&apos;; font-size: 78.78px; font-weight: 800;"><tspan x="0" y="0" style="letter-spacing: -.02em;"> </tspan><tspan x="14.81" y="0" style="letter-spacing: -.02em;">C</tspan></text>
    <g>
      <path d="m82.14,39.79c4.18-.63,9.14-1.1,14.57-1.1,9.85,0,16.86,2.28,21.51,6.62,4.73,4.33,7.48,10.48,7.48,19.07s-2.68,15.76-7.64,20.64c-4.96,4.96-13.16,7.64-23.48,7.64-4.88,0-8.98-.24-12.45-.63v-52.23Zm6.85,46.95c1.73.32,4.25.39,6.93.39,14.65,0,22.61-8.19,22.61-22.53.08-12.53-7.01-20.48-21.51-20.48-3.55,0-6.22.32-8.04.71v41.91Z" style="fill: #414042;"/>
      <path d="m139.58,39.08v53.1h-6.85v-53.1h6.85Z" style="fill: #414042;"/>
      <path d="m148.71,83.82c3.07,1.89,7.56,3.47,12.29,3.47,7.01,0,11.11-3.7,11.11-9.06,0-4.96-2.84-7.8-10.01-10.56-8.67-3.07-14.02-7.56-14.02-15.05,0-8.27,6.85-14.42,17.17-14.42,5.44,0,9.38,1.26,11.74,2.6l-1.89,5.59c-1.73-.95-5.28-2.52-10.08-2.52-7.25,0-10.01,4.33-10.01,7.96,0,4.96,3.23,7.41,10.56,10.24,8.98,3.47,13.55,7.8,13.55,15.6,0,8.19-6.07,15.28-18.59,15.28-5.12,0-10.71-1.5-13.55-3.39l1.73-5.75Z" style="fill: #414042;"/>
      <path d="m223.71,90.44c-2.52,1.26-7.56,2.52-14.02,2.52-14.97,0-26.23-9.45-26.23-26.86s11.27-27.89,27.73-27.89c6.62,0,10.79,1.42,12.6,2.36l-1.65,5.59c-2.6-1.26-6.3-2.21-10.71-2.21-12.45,0-20.72,7.96-20.72,21.9,0,13,7.48,21.35,20.4,21.35,4.18,0,8.43-.87,11.19-2.21l1.42,5.44Z" style="fill: #414042;"/>
      <path d="m274.13,65.07c0,18.28-11.11,27.97-24.66,27.97s-23.87-10.87-23.87-26.94c0-16.86,10.48-27.89,24.66-27.89s23.87,11.11,23.87,26.86Zm-41.2.87c0,11.34,6.14,21.51,16.94,21.51s17.02-10.01,17.02-22.06c0-10.56-5.51-21.59-16.94-21.59s-17.02,10.48-17.02,22.14Z" style="fill: #414042;"/>
      <path d="m292.8,92.17l-17.33-53.1h7.41l8.27,26.16c2.28,7.17,4.25,13.63,5.67,19.85h.16c1.5-6.14,3.7-12.84,6.07-19.77l8.98-26.23h7.33l-18.99,53.1h-7.56Z" style="fill: #414042;"/>
      <path d="m350.71,67.28h-20.64v19.14h23v5.75h-29.86v-53.1h28.68v5.75h-21.82v16.78h20.64v5.67Z" style="fill: #414042;"/>
      <path d="m360.08,39.79c3.47-.71,8.43-1.1,13.16-1.1,7.33,0,12.05,1.34,15.36,4.33,2.68,2.36,4.18,5.99,4.18,10.08,0,7.01-4.41,11.66-10.01,13.55v.24c4.1,1.42,6.54,5.2,7.8,10.71,1.73,7.41,2.99,12.53,4.1,14.57h-7.09c-.87-1.5-2.05-6.07-3.55-12.68-1.58-7.33-4.41-10.08-10.64-10.32h-6.46v23h-6.85v-52.39Zm6.85,24.19h7.01c7.33,0,11.97-4.02,11.97-10.08,0-6.85-4.96-9.85-12.21-9.93-3.31,0-5.67.32-6.78.63v19.38Z" style="fill: #414042;"/>
      <path d="m422.24,39.08v22.22h25.68v-22.22h6.93v53.1h-6.93v-24.89h-25.68v24.89h-6.85v-53.1h6.85Z" style="fill: #414042;"/>
      <path d="m510.24,65.07c0,18.28-11.11,27.97-24.66,27.97s-23.87-10.87-23.87-26.94c0-16.86,10.48-27.89,24.66-27.89s23.87,11.11,23.87,26.86Zm-41.2.87c0,11.34,6.14,21.51,16.94,21.51s17.02-10.01,17.02-22.06c0-10.56-5.51-21.59-16.94-21.59s-17.02,10.48-17.02,22.14Z" style="fill: #414042;"/>
      <path d="m525.92,92.17l-13.47-53.1h7.25l6.3,26.86c1.58,6.62,2.99,13.24,3.94,18.36h.16c.87-5.28,2.52-11.58,4.33-18.43l7.09-26.79h7.17l6.46,26.94c1.5,6.3,2.91,12.6,3.7,18.2h.16c1.1-5.83,2.6-11.74,4.25-18.36l7.01-26.79h7.01l-15.05,53.1h-7.17l-6.7-27.65c-1.65-6.78-2.76-11.97-3.47-17.33h-.16c-.95,5.28-2.13,10.48-4.1,17.33l-7.56,27.65h-7.17Z" style="fill: #414042;"/>
      <path d="m624.31,67.28h-20.64v19.14h23v5.75h-29.86v-53.1h28.68v5.75h-21.82v16.78h20.64v5.67Z" style="fill: #414042;"/>
      <path d="m633.69,92.17v-53.1h7.48l17.02,26.86c3.94,6.22,7.01,11.82,9.53,17.25l.16-.08c-.63-7.09-.79-13.55-.79-21.82v-22.22h6.46v53.1h-6.93l-16.86-26.94c-3.7-5.91-7.25-11.97-9.93-17.73l-.24.08c.39,6.7.55,13.08.55,21.9v22.69h-6.46Z" style="fill: #414042;"/>
      <path d="m711.13,67.28h-20.64v19.14h23v5.75h-29.86v-53.1h28.68v5.75h-21.82v16.78h20.64v5.67Z" style="fill: #414042;"/>
      <path d="m720.5,39.79c3.47-.71,8.43-1.1,13.16-1.1,7.33,0,12.05,1.34,15.36,4.33,2.68,2.36,4.18,5.99,4.18,10.08,0,7.01-4.41,11.66-10.01,13.55v.24c4.1,1.42,6.54,5.2,7.8,10.71,1.73,7.41,2.99,12.53,4.1,14.57h-7.09c-.87-1.5-2.05-6.07-3.55-12.68-1.58-7.33-4.41-10.08-10.64-10.32h-6.46v23h-6.85v-52.39Zm6.85,24.19h7.01c7.33,0,11.97-4.02,11.97-10.08,0-6.85-4.96-9.85-12.21-9.93-3.31,0-5.67.32-6.78.63v19.38Z" style="fill: #414042;"/>
      <path d="m760.05,83.82c3.07,1.89,7.56,3.47,12.29,3.47,7.01,0,11.11-3.7,11.11-9.06,0-4.96-2.84-7.8-10.01-10.56-8.67-3.07-14.02-7.56-14.02-15.05,0-8.27,6.85-14.42,17.17-14.42,5.44,0,9.38,1.26,11.74,2.6l-1.89,5.59c-1.73-.95-5.28-2.52-10.08-2.52-7.25,0-10.01,4.33-10.01,7.96,0,4.96,3.23,7.41,10.56,10.24,8.98,3.47,13.55,7.8,13.55,15.6,0,8.19-6.07,15.28-18.59,15.28-5.12,0-10.71-1.5-13.55-3.39l1.73-5.75Z" style="fill: #414042;"/>
      <path d="m809.76,92.17v-22.53l-16.78-30.57h7.8l7.48,14.65c2.05,4.02,3.62,7.25,5.28,10.95h.16c1.5-3.47,3.31-6.93,5.36-10.95l7.64-14.65h7.8l-17.8,30.49v22.61h-6.93Z" style="fill: #414042;"/>
      <path d="m836.7,83.82c3.07,1.89,7.56,3.47,12.29,3.47,7.01,0,11.11-3.7,11.11-9.06,0-4.96-2.84-7.8-10.01-10.56-8.67-3.07-14.02-7.56-14.02-15.05,0-8.27,6.85-14.42,17.17-14.42,5.44,0,9.38,1.26,11.74,2.6l-1.89,5.59c-1.73-.95-5.28-2.52-10.08-2.52-7.25,0-10.01,4.33-10.01,7.96,0,4.96,3.23,7.41,10.56,10.24,8.98,3.47,13.55,7.8,13.55,15.6,0,8.19-6.07,15.28-18.59,15.28-5.12,0-10.71-1.5-13.55-3.39l1.73-5.75Z" style="fill: #414042;"/>
      <path d="m885.97,42.01c0,4.27-3.35,7.62-7.72,7.62s-7.76-3.35-7.76-7.62,3.44-7.53,7.76-7.53,7.72,3.35,7.72,7.53Zm-13.55,0c0,3.35,2.48,6.02,5.88,6.02s5.74-2.66,5.74-5.97-2.43-6.06-5.79-6.06-5.83,2.71-5.83,6.02Zm4.64,3.95h-1.75v-7.53c.69-.14,1.65-.23,2.89-.23,1.42,0,2.07.23,2.62.55.41.32.73.92.73,1.65,0,.83-.64,1.47-1.56,1.75v.09c.73.28,1.15.83,1.38,1.84.23,1.15.37,1.61.55,1.88h-1.88c-.23-.28-.37-.96-.6-1.84-.14-.83-.6-1.19-1.56-1.19h-.83v3.03Zm.05-4.27h.83c.96,0,1.75-.32,1.75-1.1,0-.69-.51-1.15-1.61-1.15-.46,0-.78.05-.96.09v2.16Z" style="fill: #414042;"/>
      <path d="m944.66,90.44c-2.52,1.26-7.56,2.52-14.02,2.52-14.97,0-26.23-9.45-26.23-26.86s11.27-27.89,27.73-27.89c6.62,0,10.79,1.42,12.6,2.36l-1.65,5.59c-2.6-1.26-6.3-2.21-10.71-2.21-12.45,0-20.72,7.96-20.72,21.9,0,13,7.48,21.35,20.4,21.35,4.18,0,8.43-.87,11.19-2.21l1.42,5.44Z" style="fill: #414042;"/>
      <path d="m960.25,75.47l-5.51,16.7h-7.09l18.04-53.1h8.27l18.12,53.1h-7.33l-5.67-16.7h-18.83Zm17.41-5.36l-5.2-15.28c-1.18-3.47-1.97-6.62-2.76-9.69h-.16c-.79,3.15-1.65,6.38-2.68,9.61l-5.2,15.36h15.99Z" style="fill: #414042;"/>
      <path d="m997.99,92.17v-53.1h7.48l17.02,26.86c3.94,6.22,7.01,11.82,9.53,17.25l.16-.08c-.63-7.09-.79-13.55-.79-21.82v-22.22h6.46v53.1h-6.93l-16.86-26.94c-3.7-5.91-7.25-11.97-9.93-17.73l-.24.08c.39,6.7.55,13.08.55,21.9v22.69h-6.46Z" style="fill: #414042;"/>
      <path d="m119.75,119.15v24.62H51.56v22.29h64.53v24.62H51.56v23.95h69.69v24.62H16.63v-120.08h103.12Z" style="fill: #e3173e;"/>
      <path d="m200.74,119.15l35.43,89.15,37.42-89.15h52.06v120.08h-32.93v-97.8h-.33l-39.75,97.8h-35.93l-39.92-97.8h-.33v97.8h-29.61v-120.08h53.89Z" style="fill: #e3173e;"/>
      <path d="m419.95,119.15c28.11,0,46.9,13.31,46.9,39.42s-17.96,38.09-50.4,38.09h-28.94v42.58h-34.93v-120.08h67.36Zm-10.31,54.22c14.47,0,21.29-4.66,21.29-15.3s-7.48-15.63-18.79-15.63h-24.62v30.94h22.12Z" style="fill: #e3173e;"/>
      <path d="m548.67,242.39c-46.4,0-71.35-23.28-71.35-63.2s25.61-63.2,71.35-63.2,71.35,22.95,71.35,63.2-24.95,63.2-71.35,63.2Zm35.43-63.2c0-25.11-11.98-38.59-35.76-38.59s-35.09,13.31-35.09,38.59,12.14,38.59,35.43,38.59,35.43-13.47,35.43-38.59Z" style="fill: #e3173e;"/>
      <path d="m663.76,119.15l19.79,95.47h.33l27.28-95.47h42.08l23.95,95.47h.33l21.29-95.14.17-.33h32.93l-34.93,120.08h-42.25l-24.45-94.47h-.33l-25.95,94.47h-42.91l-33.93-120.08h36.59Z" style="fill: #e3173e;"/>
      <path d="m949.99,119.15v24.62h-68.19v22.29h64.53v24.62h-64.53v23.95h69.69v24.62h-104.62v-120.08h103.12Z" style="fill: #e3173e;"/>
      <path d="m1051.94,119.15c29.27,0,45.24,10.98,45.24,31.43,0,14.47-11.14,25.61-30.44,29.11v.33c14.3,1.16,21.46,4.32,24.95,13.47,2,5.32,3.99,15.97,5.82,27.61,1.33,8.32,3.33,15.97,4.32,18.13h-37.09c-1.33-3.66-2.49-10.48-3.49-19.46-1-8.32-1.66-16.3-4.49-20.29-3.33-4.66-10.31-5.82-21.29-5.82h-22.12v45.57h-34.93v-120.08h73.51Zm-10.31,51.23c13.47,0,20.62-3.83,20.62-14.14s-6.32-13.8-24.78-13.8h-24.12v27.94h28.27Z" style="fill: #e3173e;"/>
      <path d="m132.18,269.89l14.57,24.26,14.42-24.26h18.43l-25.6,36.63v20.25h-16.54v-20.25l-25.6-36.63h20.33Z" style="fill: #414042;"/>
      <path d="m210.96,328.27c-21.98,0-33.8-11.03-33.8-29.94s12.13-29.94,33.8-29.94,33.8,10.87,33.8,29.94-11.82,29.94-33.8,29.94Zm16.78-29.94c0-11.9-5.67-18.28-16.94-18.28s-16.62,6.3-16.62,18.28,5.75,18.28,16.78,18.28,16.78-6.38,16.78-18.28Z" style="fill: #414042;"/>
      <path d="m270.75,269.89v32.14c0,9.22,4.49,14.57,14.26,14.57s14.18-5.51,14.18-16.54v-30.17h16.54v31.04c0,17.88-9.14,27.34-30.72,27.34s-30.8-8.82-30.8-25.13v-33.25h16.54Z" style="fill: #414042;"/>
      <path d="m363.72,269.89c13.87,0,21.43,5.2,21.43,14.89,0,6.85-5.28,12.13-14.42,13.79v.16c6.78.55,10.16,2.05,11.82,6.38.95,2.52,1.89,7.56,2.76,13.08.63,3.94,1.58,7.56,2.05,8.59h-17.57c-.63-1.73-1.18-4.96-1.65-9.22-.47-3.94-.79-7.72-2.13-9.61-1.58-2.21-4.88-2.76-10.08-2.76h-10.48v21.59h-16.54v-56.88h34.82Zm-4.88,24.26c6.38,0,9.77-1.81,9.77-6.7s-2.99-6.54-11.74-6.54h-11.42v13.24h13.39Z" style="fill: #414042;"/>
      <path d="m454.39,328.27c-21.98,0-33.8-11.03-33.8-29.94s12.13-29.94,33.8-29.94,33.8,10.87,33.8,29.94-11.82,29.94-33.8,29.94Zm16.78-29.94c0-11.9-5.67-18.28-16.94-18.28s-16.62,6.3-16.62,18.28,5.75,18.28,16.78,18.28,16.78-6.38,16.78-18.28Z" style="fill: #414042;"/>
      <path d="m529.79,269.89c13.31,0,22.22,6.3,22.22,18.67s-8.51,18.04-23.87,18.04h-13.71v20.17h-16.54v-56.88h31.91Zm-4.88,25.68c6.85,0,10.08-2.21,10.08-7.25s-3.54-7.41-8.9-7.41h-11.66v14.65h10.48Z" style="fill: #414042;"/>
      <path d="m609.51,269.89v11.66h-32.3v10.56h30.57v11.66h-30.57v11.34h33.01v11.66h-49.55v-56.88h48.84Z" style="fill: #414042;"/>
      <path d="m657.8,269.89c13.87,0,21.43,5.2,21.43,14.89,0,6.85-5.28,12.13-14.42,13.79v.16c6.78.55,10.16,2.05,11.82,6.38.95,2.52,1.89,7.56,2.76,13.08.63,3.94,1.58,7.56,2.05,8.59h-17.57c-.63-1.73-1.18-4.96-1.65-9.22-.47-3.94-.79-7.72-2.13-9.61-1.58-2.21-4.88-2.76-10.08-2.76h-10.48v21.59h-16.54v-56.88h34.82Zm-4.88,24.26c6.38,0,9.77-1.81,9.77-6.7s-2.99-6.54-11.74-6.54h-11.42v13.24h13.39Z" style="fill: #414042;"/>
      <path d="m734.3,269.89l29.54,56.88h-18.51l-5.36-11.27h-33.09l-5.51,11.27h-17.02l30.17-56.88h19.77Zm-22.29,35.06h22.93l-11.27-24.03-11.66,24.03Z" style="fill: #414042;"/>
      <path d="m819.54,269.89v11.66h-21.9v45.22h-16.54v-45.22h-21.9v-11.66h60.35Z" style="fill: #414042;"/>
      <path d="m842.47,269.89v56.88h-16.54v-56.88h16.54Z" style="fill: #414042;"/>
      <path d="m884.85,328.27c-21.98,0-33.8-11.03-33.8-29.94s12.13-29.94,33.8-29.94,33.8,10.87,33.8,29.94-11.82,29.94-33.8,29.94Zm16.78-29.94c0-11.9-5.67-18.28-16.94-18.28s-16.62,6.3-16.62,18.28,5.75,18.28,16.78,18.28,16.78-6.38,16.78-18.28Z" style="fill: #414042;"/>
      <path d="m949.37,269.89l25.92,40.97h.16v-40.97h14.65v56.88h-21.9l-25.76-40.97h-.16v40.97h-14.65v-56.88h21.74Z" style="fill: #414042;"/>
    </g>
  </g>
</svg>